<?xml version="1.0" standalone="no"?>
<!DOCTYPE svg PUBLIC "-//W3C//DTD SVG 20010904//EN"
 "http://www.w3.org/TR/2001/REC-SVG-20010904/DTD/svg10.dtd">
<svg version="1.0" xmlns="http://www.w3.org/2000/svg"
 width="173.000000pt" height="173.000000pt" viewBox="0 0 173.000000 173.000000"
 preserveAspectRatio="xMidYMid meet">
<metadata>
Created by potrace 1.14, written by Peter Selinger 2001-2017
</metadata>
<g transform="translate(0.000000,173.000000) scale(0.100000,-0.100000)"
fill="#000000" stroke="none">
<path d="M827 1578 c-21 -24 -64 -79 -95 -123 l-57 -81 -22 21 c-12 11 -29 26
-37 33 -20 16 -166 93 -166 87 0 -2 -21 5 -46 15 -72 31 -78 28 -50 -27 31
-63 45 -114 52 -191 6 -58 5 -62 -12 -55 -11 3 -21 10 -24 13 -9 13 -140 61
-180 66 l-40 6 34 -69 c57 -117 56 -128 -11 -102 -31 12 -125 19 -153 12 -17
-4 -16 -9 14 -47 50 -66 83 -148 91 -231 2 -22 5 -40 5 -40 2 0 6 -16 14 -53
18 -79 125 -172 200 -172 12 0 26 -4 32 -8 5 -5 29 -14 54 -21 96 -28 173 -71
125 -71 -9 0 -27 -8 -42 -17 -24 -16 -27 -16 -55 0 -41 24 -77 21 -121 -9 -30
-20 -35 -27 -25 -37 21 -20 61 -34 91 -33 31 2 33 -5 12 -38 -15 -22 -14 -24
10 -28 14 -3 46 -5 70 -4 25 1 45 -1 45 -4 -1 -3 -7 -33 -14 -67 -7 -34 -10
-66 -7 -72 13 -20 158 27 202 66 15 12 19 8 43 -41 15 -30 44 -73 65 -96 l39
-42 42 53 c24 30 51 73 61 96 l18 43 36 -24 c34 -23 95 -46 158 -60 l28 -7 -4
53 c-2 29 -7 61 -12 71 -10 25 -4 29 52 32 90 5 84 2 67 33 -19 36 -18 38 14
36 24 -1 102 30 102 41 0 2 -17 16 -37 30 -45 30 -91 32 -126 5 -16 -13 -28
-17 -32 -10 -4 6 -24 18 -46 27 l-40 15 52 24 c29 14 64 26 78 27 15 2 32 6
38 10 7 4 47 19 90 33 131 42 175 102 198 269 9 69 47 162 87 215 21 28 32 51
25 51 -6 1 -23 3 -37 5 -29 4 -136 -15 -164 -29 -17 -8 -18 -6 -12 19 4 16 23
60 42 97 l35 69 -38 -6 c-59 -8 -99 -22 -158 -54 -30 -17 -56 -27 -56 -24 -13
75 5 166 46 241 14 24 24 46 22 47 -6 6 -106 -26 -165 -52 -30 -13 -84 -45
-120 -71 -39 -28 -67 -42 -70 -35 -6 18 -112 163 -147 200 l-30 32 -38 -42z"/>
</g>
</svg>
