<svg xmlns="http://www.w3.org/2000/svg" xmlns:xlink="http://www.w3.org/1999/xlink" width="1920" height="842.523" viewBox="0 0 1920 842.523">
  <defs>
    <linearGradient id="linear-gradient" x1="0.106" y1="0.501" x2="0.825" y2="0.499" gradientUnits="objectBoundingBox">
      <stop offset="0"/>
      <stop offset="0.473" stop-color="#130550"/>
      <stop offset="1"/>
    </linearGradient>
    <linearGradient id="linear-gradient-2" x1="0.128" y1="0.503" x2="0.839" y2="0.494" gradientUnits="objectBoundingBox">
      <stop offset="0"/>
      <stop offset="0.473" stop-color="#0008e8"/>
      <stop offset="1"/>
    </linearGradient>
    <radialGradient id="radial-gradient" cx="0.5" cy="0.5" r="0.6" gradientTransform="translate(-1.645) scale(4.29 1)" gradientUnits="objectBoundingBox">
      <stop offset="0" stop-color="#593087"/>
      <stop offset="1" stop-color="#282355"/>
    </radialGradient>
    <linearGradient id="linear-gradient-3" x1="0.334" y1="-24.095" x2="3.07" y2="381.582" gradientUnits="objectBoundingBox">
      <stop offset="0" stop-color="#5bb1e4"/>
      <stop offset="0.307" stop-color="#57afe3"/>
      <stop offset="0.595" stop-color="#4baae0"/>
      <stop offset="0.876" stop-color="#38a2dd"/>
      <stop offset="1" stop-color="#2e9edb"/>
    </linearGradient>
    <linearGradient id="linear-gradient-4" x1="0.447" y1="-6.672" x2="1.239" y2="100.725" xlink:href="#linear-gradient-3"/>
    <linearGradient id="linear-gradient-5" x1="0.481" y1="-1.32" x2="0.669" y2="16.257" xlink:href="#linear-gradient-3"/>
    <linearGradient id="linear-gradient-6" x1="0.272" y1="-116.646" x2="0.492" y2="-3.965" xlink:href="#linear-gradient-3"/>
    <linearGradient id="linear-gradient-7" x1="0.447" y1="-1.043" x2="0.517" y2="1.074" xlink:href="#linear-gradient-3"/>
    <linearGradient id="linear-gradient-8" x1="0.481" y1="-0.218" x2="0.542" y2="2.081" xlink:href="#linear-gradient-3"/>
    <linearGradient id="linear-gradient-9" x1="0.337" y1="-5.938" x2="0.539" y2="2.059" xlink:href="#linear-gradient-3"/>
    <linearGradient id="linear-gradient-10" x1="0.479" y1="-0.048" x2="0.51" y2="0.959" xlink:href="#linear-gradient-3"/>
    <linearGradient id="linear-gradient-11" x1="0.377" y1="-10.502" x2="0.581" y2="7.937" xlink:href="#linear-gradient-3"/>
    <linearGradient id="linear-gradient-12" x1="-0.034" y1="-32.654" x2="0.806" y2="19.274" xlink:href="#linear-gradient-3"/>
    <linearGradient id="linear-gradient-13" x1="0.352" y1="-20.225" x2="0.583" y2="12.134" xlink:href="#linear-gradient-3"/>
    <linearGradient id="linear-gradient-14" x1="0.473" y1="-6.763" x2="0.994" y2="132.792" xlink:href="#linear-gradient-3"/>
    <linearGradient id="linear-gradient-15" x1="0.481" y1="-2.727" x2="0.801" y2="50.909" xlink:href="#linear-gradient-3"/>
    <linearGradient id="linear-gradient-16" x1="0.466" y1="-3.88" x2="0.864" y2="46.957" xlink:href="#linear-gradient-3"/>
    <linearGradient id="linear-gradient-17" x1="0.418" y1="-12.178" x2="1.863" y2="212.112" xlink:href="#linear-gradient-3"/>
    <linearGradient id="linear-gradient-18" x1="0.398" y1="-18.721" x2="2.068" y2="296.139" xlink:href="#linear-gradient-3"/>
    <linearGradient id="linear-gradient-19" x1="0.465" y1="-4.337" x2="0.994" y2="67.834" xlink:href="#linear-gradient-3"/>
    <linearGradient id="linear-gradient-20" x1="0.464" y1="-2.337" x2="0.95" y2="36.779" xlink:href="#linear-gradient-3"/>
    <linearGradient id="linear-gradient-21" x1="0.428" y1="-8.697" x2="1.44" y2="119.096" xlink:href="#linear-gradient-3"/>
    <linearGradient id="linear-gradient-22" x1="0.463" y1="-5.112" x2="1.13" y2="94.749" xlink:href="#linear-gradient-3"/>
    <linearGradient id="linear-gradient-23" x1="0.467" y1="-5.444" x2="1.086" y2="105.989" xlink:href="#linear-gradient-3"/>
    <linearGradient id="linear-gradient-24" x1="0.451" y1="-10.732" x2="1.439" y2="217.464" xlink:href="#linear-gradient-3"/>
    <linearGradient id="linear-gradient-25" x1="0.488" y1="-1.265" x2="0.708" y2="29.029" xlink:href="#linear-gradient-3"/>
    <linearGradient id="linear-gradient-26" x1="0.478" y1="-0.228" x2="0.623" y2="5.147" xlink:href="#linear-gradient-3"/>
    <linearGradient id="linear-gradient-27" x1="0.487" y1="-0.058" x2="0.529" y2="1.072" xlink:href="#linear-gradient-3"/>
    <linearGradient id="linear-gradient-28" x1="0.46" y1="-1.989" x2="0.642" y2="9.172" xlink:href="#linear-gradient-3"/>
    <linearGradient id="linear-gradient-29" x1="0.382" y1="-5.706" x2="0.877" y2="20.358" xlink:href="#linear-gradient-3"/>
    <linearGradient id="linear-gradient-30" x1="0.452" y1="-3.764" x2="0.801" y2="26.466" xlink:href="#linear-gradient-3"/>
  </defs>
  <g id="Group_4196" data-name="Group 4196" transform="translate(-8706 -2239)">
    <g id="Group_1334" data-name="Group 1334" transform="translate(8706 2239)">
      <g id="BACKGROUND">
        <rect id="Rectangle_862" data-name="Rectangle 862" width="1920" height="842.523" fill="#3c368c"/>
      </g>
    </g>
    <g id="Group_1335" data-name="Group 1335" transform="translate(5944.074 2296.966)">
      <g id="Group_1277" data-name="Group 1277" transform="translate(3430.504 -56.924)">
        <path id="Path_6791" data-name="Path 6791" d="M4039.222,718.787,4214.839.018H3626.77l129.974,718.769Z" transform="translate(-3626.77 -0.018)" fill="url(#linear-gradient)" style="mix-blend-mode: screen;isolation: isolate"/>
        <path id="Path_6792" data-name="Path 6792" d="M4039.222,718.787,4214.839.018H3626.77l129.974,718.769Z" transform="translate(-3626.77 -0.018)" opacity="0.7" fill="url(#linear-gradient-2)" style="mix-blend-mode: screen;isolation: isolate"/>
        <g id="Group_1276" data-name="Group 1276" transform="translate(129.974 662.443)">
          <path id="Path_6793" data-name="Path 6793" d="M4215.228,1715.86c-54.4,22.948-143.881,22.02-199.85-2.075s-55.958-61.311.012-83.115,145.448-20.885,199.842,2.078S4269.627,1692.9,4215.228,1715.86Z" transform="translate(-3973.409 -1614.898)" fill="#fffbfb"/>
        </g>
      </g>
      <g id="Group_1278" data-name="Group 1278" transform="translate(3362.926 68.937)" opacity="0.55">
        <path id="Path_6794" data-name="Path 6794" d="M3874.827,1388.661a3.507,3.507,0,1,1-3.507-3.506A3.509,3.509,0,0,1,3874.827,1388.661Z" transform="translate(-3709.854 -934.716)" fill="#fff"/>
        <circle id="Ellipse_170" data-name="Ellipse 170" cx="3.508" cy="3.508" r="3.508" transform="translate(105.467 353.451) rotate(-74.411)" fill="#fff"/>
        <path id="Path_6795" data-name="Path 6795" d="M3755.714,1067.873a3.507,3.507,0,1,1-3.508-3.508A3.505,3.505,0,0,1,3755.714,1067.873Z" transform="translate(-3635.403 -734.209)" fill="#fff"/>
        <path id="Path_6796" data-name="Path 6796" d="M3911.62,1505.658a3.507,3.507,0,1,1-3.506-3.508A3.5,3.5,0,0,1,3911.62,1505.658Z" transform="translate(-3732.852 -1007.844)" fill="#fff"/>
        <path id="Path_6797" data-name="Path 6797" d="M4031.581,1557.42a3.507,3.507,0,1,1-3.506-3.508A3.505,3.505,0,0,1,4031.581,1557.42Z" transform="translate(-3807.833 -1040.198)" fill="#fff"/>
        <circle id="Ellipse_171" data-name="Ellipse 171" cx="3.508" cy="3.508" r="3.508" transform="translate(150.943 552.187)" fill="#fff"/>
        <path id="Path_6798" data-name="Path 6798" d="M3652.316,935.966a3.508,3.508,0,1,1-3.508-3.506A3.509,3.509,0,0,1,3652.316,935.966Z" transform="translate(-3570.774 -651.762)" fill="#fff"/>
        <circle id="Ellipse_172" data-name="Ellipse 172" cx="3.508" cy="3.508" r="3.508" transform="translate(116.803 163.174)" fill="#fff"/>
        <path id="Path_6799" data-name="Path 6799" d="M3684.124,436a3.507,3.507,0,1,1-3.508-3.508A3.508,3.508,0,0,1,3684.124,436Z" transform="translate(-3590.657 -339.261)" fill="#fff"/>
        <path id="Path_6800" data-name="Path 6800" d="M3709.983,379.387a3.507,3.507,0,1,1-3.506-3.506A3.5,3.5,0,0,1,3709.983,379.387Z" transform="translate(-3606.82 -303.875)" fill="#fff"/>
        <path id="Path_6801" data-name="Path 6801" d="M3588.835,270.74a3.507,3.507,0,1,1-3.508-3.508A3.507,3.507,0,0,1,3588.835,270.74Z" transform="translate(-3531.097 -235.965)" fill="#fff"/>
        <path id="Path_6802" data-name="Path 6802" d="M3912.784,291.514a3.507,3.507,0,1,1-3.506-3.508A3.507,3.507,0,0,1,3912.784,291.514Z" transform="translate(-3733.579 -248.949)" fill="#fff"/>
        <path id="Path_6803" data-name="Path 6803" d="M4081.148,483.524a3.508,3.508,0,1,1-3.508-3.506A3.508,3.508,0,0,1,4081.148,483.524Z" transform="translate(-3838.814 -368.965)" fill="#fff"/>
        <path id="Path_6804" data-name="Path 6804" d="M3922.139,798.006a3.507,3.507,0,1,1-3.507-3.508A3.5,3.5,0,0,1,3922.139,798.006Z" transform="translate(-3739.427 -565.53)" fill="#fff"/>
        <path id="Path_6805" data-name="Path 6805" d="M4104.943,1135.751a3.507,3.507,0,1,1-3.506-3.507A3.5,3.5,0,0,1,4104.943,1135.751Z" transform="translate(-3853.688 -776.636)" fill="#fff"/>
        <circle id="Ellipse_173" data-name="Ellipse 173" cx="3.508" cy="3.508" r="3.508" transform="translate(12.737 362.676)" fill="#fff"/>
        <circle id="Ellipse_174" data-name="Ellipse 174" cx="3.508" cy="3.508" r="3.508" transform="translate(16.244 81.903)" fill="#fff"/>
        <path id="Path_6806" data-name="Path 6806" d="M3468.815,562.608a3.507,3.507,0,1,1-3.507-3.508A3.506,3.506,0,0,1,3468.815,562.608Z" transform="translate(-3456.079 -418.395)" fill="#fff"/>
        <path id="Path_6807" data-name="Path 6807" d="M3487.524,1046.134a3.508,3.508,0,1,1-3.508-3.507A3.508,3.508,0,0,1,3487.524,1046.134Z" transform="translate(-3467.772 -720.621)" fill="#fff"/>
        <path id="Path_6808" data-name="Path 6808" d="M3576.866,1165.92a2.331,2.331,0,1,1-2.332-2.332A2.332,2.332,0,0,1,3576.866,1165.92Z" transform="translate(-3525.086 -796.228)" fill="#fff"/>
        <path id="Path_6809" data-name="Path 6809" d="M3631.432,1019.552a2.331,2.331,0,1,1-2.332-2.331A2.33,2.33,0,0,1,3631.432,1019.552Z" transform="translate(-3559.192 -704.742)" fill="#fff"/>
        <path id="Path_6810" data-name="Path 6810" d="M3449.8,879.734a1.63,1.63,0,1,1-1.631-1.63A1.629,1.629,0,0,1,3449.8,879.734Z" transform="translate(-3446.54 -617.787)" fill="#fff"/>
        <path id="Path_6811" data-name="Path 6811" d="M3588.174,667.312a1.629,1.629,0,1,1-1.63-1.63A1.627,1.627,0,0,1,3588.174,667.312Z" transform="translate(-3533.031 -485.014)" fill="#fff"/>
        <path id="Path_6812" data-name="Path 6812" d="M3959.853,615.851a1.629,1.629,0,1,1-1.628-1.63A1.629,1.629,0,0,1,3959.853,615.851Z" transform="translate(-3765.347 -452.848)" fill="#fff"/>
        <path id="Path_6813" data-name="Path 6813" d="M3454.146,457.956a1.629,1.629,0,1,1-1.628-1.63A1.629,1.629,0,0,1,3454.146,457.956Z" transform="translate(-3449.257 -354.157)" fill="#fff"/>
        <path id="Path_6814" data-name="Path 6814" d="M3766.322,812.382a1.629,1.629,0,1,1-1.63-1.63A1.631,1.631,0,0,1,3766.322,812.382Z" transform="translate(-3644.381 -575.689)" fill="#fff"/>
        <path id="Path_6815" data-name="Path 6815" d="M3866.541,906.726a1.629,1.629,0,1,1-1.63-1.63A1.628,1.628,0,0,1,3866.541,906.726Z" transform="translate(-3707.022 -634.658)" fill="#fff"/>
        <path id="Path_6816" data-name="Path 6816" d="M3828.322,961.2a1.629,1.629,0,1,1-1.628-1.629A1.629,1.629,0,0,1,3828.322,961.2Z" transform="translate(-3683.134 -668.711)" fill="#fff"/>
        <path id="Path_6817" data-name="Path 6817" d="M3766.322,1014.506a1.629,1.629,0,1,1-1.63-1.629A1.628,1.628,0,0,1,3766.322,1014.506Z" transform="translate(-3644.381 -702.026)" fill="#fff"/>
        <path id="Path_6818" data-name="Path 6818" d="M3616.447,698.912a1.629,1.629,0,1,1-1.63-1.629A1.632,1.632,0,0,1,3616.447,698.912Z" transform="translate(-3550.703 -504.766)" fill="#fff"/>
        <path id="Path_6819" data-name="Path 6819" d="M3644.216,431a1.63,1.63,0,1,1-1.631-1.63A1.629,1.629,0,0,1,3644.216,431Z" transform="translate(-3568.06 -337.305)" fill="#fff"/>
        <path id="Path_6820" data-name="Path 6820" d="M3711.235,403.905a1.629,1.629,0,1,1-1.628-1.63A1.626,1.626,0,0,1,3711.235,403.905Z" transform="translate(-3609.95 -320.372)" fill="#fff"/>
        <path id="Path_6821" data-name="Path 6821" d="M3846.767,283.224a1.63,1.63,0,1,1-1.629-1.628A1.63,1.63,0,0,1,3846.767,283.224Z" transform="translate(-3694.662 -244.943)" fill="#fff"/>
        <path id="Path_6822" data-name="Path 6822" d="M3986.463,486.654a1.63,1.63,0,1,1-1.631-1.629A1.63,1.63,0,0,1,3986.463,486.654Z" transform="translate(-3781.979 -372.095)" fill="#fff"/>
        <path id="Path_6823" data-name="Path 6823" d="M4049.654,341a1.63,1.63,0,1,1-1.63-1.629A1.631,1.631,0,0,1,4049.654,341Z" transform="translate(-3821.476 -281.053)" fill="#fff"/>
        <path id="Path_6824" data-name="Path 6824" d="M4178.538,185.471a1.63,1.63,0,1,1-1.63-1.629A1.629,1.629,0,0,1,4178.538,185.471Z" transform="translate(-3902.034 -183.842)" fill="#fff"/>
        <path id="Path_6825" data-name="Path 6825" d="M4226.861,341a1.63,1.63,0,1,1-1.63-1.629A1.632,1.632,0,0,1,4226.861,341Z" transform="translate(-3932.239 -281.053)" fill="#fff"/>
        <path id="Path_6826" data-name="Path 6826" d="M3694.729,592.476a1.63,1.63,0,1,1-1.63-1.63A1.631,1.631,0,0,1,3694.729,592.476Z" transform="translate(-3599.631 -438.238)" fill="#fff"/>
        <path id="Path_6827" data-name="Path 6827" d="M4012.24,911.072a1.629,1.629,0,1,1-1.63-1.629A1.629,1.629,0,0,1,4012.24,911.072Z" transform="translate(-3798.091 -637.375)" fill="#fff"/>
        <path id="Path_6828" data-name="Path 6828" d="M3986.463,956.859a1.63,1.63,0,1,1-1.631-1.63A1.629,1.629,0,0,1,3986.463,956.859Z" transform="translate(-3781.979 -665.994)" fill="#fff"/>
        <path id="Path_6829" data-name="Path 6829" d="M3832.669,1096.006a1.629,1.629,0,1,1-1.63-1.629A1.631,1.631,0,0,1,3832.669,1096.006Z" transform="translate(-3685.851 -752.968)" fill="#fff"/>
        <path id="Path_6830" data-name="Path 6830" d="M3961.517,1255.83a1.63,1.63,0,1,1-1.63-1.629A1.632,1.632,0,0,1,3961.517,1255.83Z" transform="translate(-3766.387 -852.865)" fill="#fff"/>
        <path id="Path_6831" data-name="Path 6831" d="M4037.181,1373.765a1.63,1.63,0,1,1-1.631-1.63A1.628,1.628,0,0,1,4037.181,1373.765Z" transform="translate(-3813.68 -926.579)" fill="#fff"/>
        <path id="Path_6832" data-name="Path 6832" d="M3995.154,1478.026a1.629,1.629,0,1,1-1.63-1.63A1.628,1.628,0,0,1,3995.154,1478.026Z" transform="translate(-3787.412 -991.747)" fill="#fff"/>
        <path id="Path_6833" data-name="Path 6833" d="M4016.585,1499.435a1.63,1.63,0,1,1-1.63-1.628A1.629,1.629,0,0,1,4016.585,1499.435Z" transform="translate(-3800.806 -1005.13)" fill="#fff"/>
        <path id="Path_6834" data-name="Path 6834" d="M3853.228,1508.788a1.63,1.63,0,1,1-1.629-1.63A1.628,1.628,0,0,1,3853.228,1508.788Z" transform="translate(-3698.701 -1010.974)" fill="#fff"/>
        <path id="Path_6835" data-name="Path 6835" d="M3926.571,1663.155a1.629,1.629,0,1,1-1.628-1.63A1.628,1.628,0,0,1,3926.571,1663.155Z" transform="translate(-3744.545 -1107.461)" fill="#fff"/>
        <path id="Path_6836" data-name="Path 6836" d="M3986.463,1676.573a1.63,1.63,0,1,1-1.631-1.63A1.631,1.631,0,0,1,3986.463,1676.573Z" transform="translate(-3781.979 -1115.847)" fill="#fff"/>
        <path id="Path_6837" data-name="Path 6837" d="M3961.33,1579.26a1.629,1.629,0,1,1-1.629-1.629A1.63,1.63,0,0,1,3961.33,1579.26Z" transform="translate(-3766.27 -1055.023)" fill="#fff"/>
        <path id="Path_6838" data-name="Path 6838" d="M4064.623,1612.185a1.629,1.629,0,1,1-1.629-1.628A1.629,1.629,0,0,1,4064.623,1612.185Z" transform="translate(-3830.833 -1075.603)" fill="#fff"/>
        <path id="Path_6839" data-name="Path 6839" d="M4108.693,1626.03a1.629,1.629,0,1,1-1.63-1.63A1.629,1.629,0,0,1,4108.693,1626.03Z" transform="translate(-3858.379 -1084.256)" fill="#fff"/>
        <path id="Path_6840" data-name="Path 6840" d="M4140.292,1574.913a1.63,1.63,0,1,1-1.63-1.63A1.629,1.629,0,0,1,4140.292,1574.913Z" transform="translate(-3878.129 -1052.306)" fill="#fff"/>
        <path id="Path_6841" data-name="Path 6841" d="M4172.72,1607.839a1.629,1.629,0,1,1-1.629-1.63A1.63,1.63,0,0,1,4172.72,1607.839Z" transform="translate(-3898.398 -1072.886)" fill="#fff"/>
        <path id="Path_6842" data-name="Path 6842" d="M4164.029,1522.49a1.629,1.629,0,1,1-1.629-1.629A1.629,1.629,0,0,1,4164.029,1522.49Z" transform="translate(-3892.966 -1019.539)" fill="#fff"/>
        <path id="Path_6843" data-name="Path 6843" d="M4095.392,1469.335a1.63,1.63,0,1,1-1.63-1.63A1.628,1.628,0,0,1,4095.392,1469.335Z" transform="translate(-3850.064 -986.314)" fill="#fff"/>
        <path id="Path_6844" data-name="Path 6844" d="M4077.931,1551.2a1.629,1.629,0,1,1-1.63-1.629A1.63,1.63,0,0,1,4077.931,1551.2Z" transform="translate(-3839.151 -1037.482)" fill="#fff"/>
        <path id="Path_6845" data-name="Path 6845" d="M4020.931,1658.81a1.63,1.63,0,1,1-1.629-1.628A1.627,1.627,0,0,1,4020.931,1658.81Z" transform="translate(-3803.523 -1104.746)" fill="#fff"/>
        <path id="Path_6846" data-name="Path 6846" d="M3926.571,1738.839a1.629,1.629,0,1,1-1.628-1.63A1.629,1.629,0,0,1,3926.571,1738.839Z" transform="translate(-3744.545 -1154.767)" fill="#fff"/>
        <path id="Path_6847" data-name="Path 6847" d="M3898.3,1587.951a1.629,1.629,0,1,1-1.63-1.629A1.629,1.629,0,0,1,3898.3,1587.951Z" transform="translate(-3726.875 -1060.455)" fill="#fff"/>
        <path id="Path_6848" data-name="Path 6848" d="M3538.116,1358.424a3.507,3.507,0,1,1-3.507-3.508A3.508,3.508,0,0,1,3538.116,1358.424Z" transform="translate(-3499.395 -915.816)" fill="#fff"/>
        <path id="Path_6849" data-name="Path 6849" d="M3780.659,1202.752a3.507,3.507,0,1,1-3.508-3.508A3.5,3.5,0,0,1,3780.659,1202.752Z" transform="translate(-3650.995 -818.514)" fill="#fff"/>
        <path id="Path_6850" data-name="Path 6850" d="M3737,1566.776a3.508,3.508,0,1,1-3.508-3.508A3.506,3.506,0,0,1,3737,1566.776Z" transform="translate(-3623.708 -1046.046)" fill="#fff"/>
      </g>
      <g id="Group_1279" data-name="Group 1279" transform="translate(3786.437 96.738)">
        <circle id="Ellipse_175" data-name="Ellipse 175" cx="3.508" cy="3.508" r="3.508" transform="matrix(0.968, -0.251, 0.251, 0.968, 128.877, 451.431)" fill="#fff" opacity="0.44"/>
        <path id="Path_6851" data-name="Path 6851" d="M5059.626,1188.291a3.508,3.508,0,1,0,3.507-3.508A3.506,3.506,0,0,0,5059.626,1188.291Z" transform="translate(-4878.303 -837.276)" fill="#fff" opacity="0.44"/>
        <path id="Path_6852" data-name="Path 6852" d="M5040.919,1142.016a3.507,3.507,0,1,0,3.507-3.506A3.508,3.508,0,0,0,5040.919,1142.016Z" transform="translate(-4866.61 -808.353)" fill="#fff" opacity="0.44"/>
        <path id="Path_6853" data-name="Path 6853" d="M4885.012,1579.8a3.507,3.507,0,1,0,3.508-3.508A3.507,3.507,0,0,0,4885.012,1579.8Z" transform="translate(-4769.161 -1081.989)" fill="#fff" opacity="0.44"/>
        <path id="Path_6854" data-name="Path 6854" d="M4765.047,1631.564a3.507,3.507,0,1,0,3.507-3.508A3.507,3.507,0,0,0,4765.047,1631.564Z" transform="translate(-4694.178 -1114.342)" fill="#fff" opacity="0.44"/>
        <path id="Path_6855" data-name="Path 6855" d="M4940.516,1734.17a3.507,3.507,0,1,0,3.507-3.508A3.506,3.506,0,0,0,4940.516,1734.17Z" transform="translate(-4803.854 -1178.475)" fill="#fff" opacity="0.44"/>
        <circle id="Ellipse_176" data-name="Ellipse 176" cx="3.508" cy="3.508" r="3.508" transform="translate(213.078 280.696)" fill="#fff" opacity="0.44"/>
        <path id="Path_6856" data-name="Path 6856" d="M5031.563,696.678a3.508,3.508,0,1,0,3.508-3.508A3.508,3.508,0,0,0,5031.563,696.678Z" transform="translate(-4860.762 -529.996)" fill="#fff" opacity="0.44"/>
        <path id="Path_6857" data-name="Path 6857" d="M5112.508,510.145a3.508,3.508,0,1,0,3.508-3.506A3.509,3.509,0,0,0,5112.508,510.145Z" transform="translate(-4911.356 -413.405)" fill="#fff" opacity="0.44"/>
        <circle id="Ellipse_177" data-name="Ellipse 177" cx="3.508" cy="3.508" r="3.508" transform="translate(191.452 72.005)" fill="#fff" opacity="0.44"/>
        <path id="Path_6858" data-name="Path 6858" d="M5207.8,344.884a3.507,3.507,0,1,0,3.508-3.507A3.507,3.507,0,0,0,5207.8,344.884Z" transform="translate(-4970.917 -310.109)" fill="#fff" opacity="0.44"/>
        <path id="Path_6859" data-name="Path 6859" d="M4883.848,365.658a3.507,3.507,0,1,0,3.507-3.508A3.507,3.507,0,0,0,4883.848,365.658Z" transform="translate(-4768.434 -323.093)" fill="#fff" opacity="0.44"/>
        <circle id="Ellipse_178" data-name="Ellipse 178" cx="3.508" cy="3.508" r="3.508" transform="translate(52.283 111.051)" fill="#fff" opacity="0.44"/>
        <path id="Path_6860" data-name="Path 6860" d="M4874.493,872.151a3.507,3.507,0,1,0,3.508-3.508A3.509,3.509,0,0,0,4874.493,872.151Z" transform="translate(-4762.587 -639.674)" fill="#fff" opacity="0.44"/>
        <path id="Path_6861" data-name="Path 6861" d="M4691.688,1209.893a3.507,3.507,0,1,0,3.506-3.508A3.507,3.507,0,0,0,4691.688,1209.893Z" transform="translate(-4648.326 -850.778)" fill="#fff" opacity="0.44"/>
        <circle id="Ellipse_179" data-name="Ellipse 179" cx="3.508" cy="3.508" r="3.508" transform="translate(273.412 366.184) rotate(-45)" fill="#fff" opacity="0.44"/>
        <circle id="Ellipse_180" data-name="Ellipse 180" cx="3.508" cy="3.508" r="3.508" transform="translate(270.645 82.803) rotate(-13.282)" fill="#fff" opacity="0.44"/>
        <path id="Path_6862" data-name="Path 6862" d="M5327.813,636.751a3.508,3.508,0,1,0,3.507-3.507A3.507,3.507,0,0,0,5327.813,636.751Z" transform="translate(-5045.932 -492.539)" fill="#fff" opacity="0.44"/>
        <circle id="Ellipse_181" data-name="Ellipse 181" cx="3.508" cy="3.508" r="3.508" transform="translate(274.53 328.65) rotate(-84.233)" fill="#fff" opacity="0.44"/>
        <path id="Path_6863" data-name="Path 6863" d="M5223.684,1240.064a2.331,2.331,0,1,0,2.332-2.332A2.333,2.333,0,0,0,5223.684,1240.064Z" transform="translate(-4980.847 -870.372)" fill="#fff" opacity="0.44"/>
        <path id="Path_6864" data-name="Path 6864" d="M5169.122,1093.7a2.331,2.331,0,1,0,2.331-2.332A2.329,2.329,0,0,0,5169.122,1093.7Z" transform="translate(-4946.743 -778.885)" fill="#fff" opacity="0.44"/>
        <path id="Path_6865" data-name="Path 6865" d="M5353.094,953.878a1.63,1.63,0,1,0,1.629-1.63A1.626,1.626,0,0,0,5353.094,953.878Z" transform="translate(-5061.734 -691.931)" fill="#fff" opacity="0.44"/>
        <path id="Path_6866" data-name="Path 6866" d="M5214.719,741.455a1.63,1.63,0,1,0,1.63-1.629A1.632,1.632,0,0,0,5214.719,741.455Z" transform="translate(-4975.243 -559.158)" fill="#fff" opacity="0.44"/>
        <path id="Path_6867" data-name="Path 6867" d="M4843.04,690a1.629,1.629,0,1,0,1.628-1.63A1.631,1.631,0,0,0,4843.04,690Z" transform="translate(-4742.927 -526.992)" fill="#fff" opacity="0.44"/>
        <path id="Path_6868" data-name="Path 6868" d="M5348.747,532.1a1.629,1.629,0,1,0,1.63-1.63A1.627,1.627,0,0,0,5348.747,532.1Z" transform="translate(-5059.017 -428.301)" fill="#fff" opacity="0.44"/>
        <path id="Path_6869" data-name="Path 6869" d="M5036.57,886.515a1.63,1.63,0,1,0,1.63-1.63A1.629,1.629,0,0,0,5036.57,886.515Z" transform="translate(-4863.892 -649.826)" fill="#fff" opacity="0.44"/>
        <path id="Path_6870" data-name="Path 6870" d="M4936.359,980.869a1.629,1.629,0,1,0,1.629-1.629A1.627,1.627,0,0,0,4936.359,980.869Z" transform="translate(-4801.256 -708.802)" fill="#fff" opacity="0.44"/>
        <path id="Path_6871" data-name="Path 6871" d="M4974.576,1035.349a1.629,1.629,0,1,0,1.63-1.628A1.628,1.628,0,0,0,4974.576,1035.349Z" transform="translate(-4825.143 -742.855)" fill="#fff" opacity="0.44"/>
        <path id="Path_6872" data-name="Path 6872" d="M5036.57,1088.65a1.63,1.63,0,1,0,1.63-1.629A1.629,1.629,0,0,0,5036.57,1088.65Z" transform="translate(-4863.892 -776.17)" fill="#fff" opacity="0.44"/>
        <path id="Path_6873" data-name="Path 6873" d="M5186.454,773.045a1.629,1.629,0,1,0,1.627-1.629A1.626,1.626,0,0,0,5186.454,773.045Z" transform="translate(-4957.577 -578.903)" fill="#fff" opacity="0.44"/>
        <path id="Path_6874" data-name="Path 6874" d="M5158.68,505.139a1.63,1.63,0,1,0,1.63-1.629A1.628,1.628,0,0,0,5158.68,505.139Z" transform="translate(-4940.216 -411.45)" fill="#fff" opacity="0.44"/>
        <path id="Path_6875" data-name="Path 6875" d="M5091.653,478.05a1.629,1.629,0,1,0,1.629-1.63A1.628,1.628,0,0,0,5091.653,478.05Z" transform="translate(-4898.321 -394.517)" fill="#fff" opacity="0.44"/>
        <path id="Path_6876" data-name="Path 6876" d="M4956.126,357.369a1.629,1.629,0,1,0,1.628-1.629A1.629,1.629,0,0,0,4956.126,357.369Z" transform="translate(-4813.611 -319.087)" fill="#fff" opacity="0.44"/>
        <path id="Path_6877" data-name="Path 6877" d="M4816.431,560.8a1.63,1.63,0,1,0,1.63-1.63A1.63,1.63,0,0,0,4816.431,560.8Z" transform="translate(-4726.295 -446.237)" fill="#fff" opacity="0.44"/>
        <path id="Path_6878" data-name="Path 6878" d="M4753.234,415.132a1.63,1.63,0,1,0,1.63-1.63A1.628,1.628,0,0,0,4753.234,415.132Z" transform="translate(-4686.794 -355.191)" fill="#fff" opacity="0.44"/>
        <path id="Path_6879" data-name="Path 6879" d="M4624.355,259.615a1.629,1.629,0,1,0,1.629-1.629A1.628,1.628,0,0,0,4624.355,259.615Z" transform="translate(-4606.239 -257.986)" fill="#fff" opacity="0.44"/>
        <path id="Path_6880" data-name="Path 6880" d="M4576.04,415.132a1.629,1.629,0,1,0,1.628-1.63A1.626,1.626,0,0,0,4576.04,415.132Z" transform="translate(-4576.04 -355.191)" fill="#fff" opacity="0.44"/>
        <path id="Path_6881" data-name="Path 6881" d="M5108.166,666.609a1.629,1.629,0,1,0,1.627-1.63A1.626,1.626,0,0,0,5108.166,666.609Z" transform="translate(-4908.643 -512.375)" fill="#fff" opacity="0.44"/>
        <path id="Path_6882" data-name="Path 6882" d="M4790.652,985.214a1.629,1.629,0,1,0,1.63-1.63A1.628,1.628,0,0,0,4790.652,985.214Z" transform="translate(-4710.183 -711.518)" fill="#fff" opacity="0.44"/>
        <path id="Path_6883" data-name="Path 6883" d="M4816.431,1031a1.63,1.63,0,1,0,1.63-1.63A1.626,1.626,0,0,0,4816.431,1031Z" transform="translate(-4726.295 -740.138)" fill="#fff" opacity="0.44"/>
        <path id="Path_6884" data-name="Path 6884" d="M4970.23,1170.15a1.629,1.629,0,1,0,1.629-1.629A1.629,1.629,0,0,0,4970.23,1170.15Z" transform="translate(-4822.427 -827.112)" fill="#fff" opacity="0.44"/>
        <path id="Path_6885" data-name="Path 6885" d="M4841.376,1329.964a1.63,1.63,0,1,0,1.63-1.63A1.627,1.627,0,0,0,4841.376,1329.964Z" transform="translate(-4741.887 -927.002)" fill="#fff" opacity="0.44"/>
        <path id="Path_6886" data-name="Path 6886" d="M4765.708,1447.908a1.629,1.629,0,1,0,1.629-1.629A1.632,1.632,0,0,0,4765.708,1447.908Z" transform="translate(-4694.591 -1000.723)" fill="#fff" opacity="0.44"/>
        <path id="Path_6887" data-name="Path 6887" d="M4807.739,1552.171a1.63,1.63,0,1,0,1.63-1.63A1.63,1.63,0,0,0,4807.739,1552.171Z" transform="translate(-4720.862 -1065.891)" fill="#fff" opacity="0.44"/>
        <path id="Path_6888" data-name="Path 6888" d="M4786.309,1573.577a1.63,1.63,0,1,0,1.629-1.63A1.629,1.629,0,0,0,4786.309,1573.577Z" transform="translate(-4707.467 -1079.271)" fill="#fff" opacity="0.44"/>
        <path id="Path_6889" data-name="Path 6889" d="M4949.661,1582.933a1.629,1.629,0,1,0,1.628-1.63A1.627,1.627,0,0,0,4949.661,1582.933Z" transform="translate(-4809.57 -1085.119)" fill="#fff" opacity="0.44"/>
        <path id="Path_6890" data-name="Path 6890" d="M4876.321,1737.3a1.63,1.63,0,1,0,1.629-1.63A1.626,1.626,0,0,0,4876.321,1737.3Z" transform="translate(-4763.729 -1181.605)" fill="#fff" opacity="0.44"/>
        <path id="Path_6891" data-name="Path 6891" d="M4816.431,1750.718a1.63,1.63,0,1,0,1.63-1.63A1.63,1.63,0,0,0,4816.431,1750.718Z" transform="translate(-4726.295 -1189.992)" fill="#fff" opacity="0.44"/>
        <path id="Path_6892" data-name="Path 6892" d="M4841.566,1653.4a1.629,1.629,0,1,0,1.631-1.63A1.629,1.629,0,0,0,4841.566,1653.4Z" transform="translate(-4742.006 -1129.165)" fill="#fff" opacity="0.44"/>
        <path id="Path_6893" data-name="Path 6893" d="M4738.271,1686.327a1.629,1.629,0,1,0,1.628-1.63A1.63,1.63,0,0,0,4738.271,1686.327Z" transform="translate(-4677.441 -1149.745)" fill="#fff" opacity="0.44"/>
        <path id="Path_6894" data-name="Path 6894" d="M4694.2,1700.175a1.629,1.629,0,1,0,1.63-1.63A1.627,1.627,0,0,0,4694.2,1700.175Z" transform="translate(-4649.896 -1158.4)" fill="#fff" opacity="0.44"/>
        <path id="Path_6895" data-name="Path 6895" d="M4662.605,1649.056a1.63,1.63,0,1,0,1.63-1.628A1.628,1.628,0,0,0,4662.605,1649.056Z" transform="translate(-4630.147 -1126.45)" fill="#fff" opacity="0.44"/>
        <path id="Path_6896" data-name="Path 6896" d="M4630.176,1681.982a1.629,1.629,0,1,0,1.63-1.628A1.631,1.631,0,0,0,4630.176,1681.982Z" transform="translate(-4609.877 -1147.03)" fill="#fff" opacity="0.44"/>
        <path id="Path_6897" data-name="Path 6897" d="M4638.869,1596.632a1.629,1.629,0,1,0,1.629-1.63A1.628,1.628,0,0,0,4638.869,1596.632Z" transform="translate(-4615.311 -1093.682)" fill="#fff" opacity="0.44"/>
        <path id="Path_6898" data-name="Path 6898" d="M4707.508,1543.478a1.629,1.629,0,1,0,1.629-1.628A1.63,1.63,0,0,0,4707.508,1543.478Z" transform="translate(-4658.213 -1060.459)" fill="#fff" opacity="0.44"/>
        <path id="Path_6899" data-name="Path 6899" d="M4724.969,1625.339a1.63,1.63,0,1,0,1.629-1.63A1.626,1.626,0,0,0,4724.969,1625.339Z" transform="translate(-4669.127 -1111.625)" fill="#fff" opacity="0.44"/>
        <path id="Path_6900" data-name="Path 6900" d="M4781.961,1732.955a1.629,1.629,0,1,0,1.63-1.629A1.63,1.63,0,0,0,4781.961,1732.955Z" transform="translate(-4704.75 -1178.89)" fill="#fff" opacity="0.44"/>
        <path id="Path_6901" data-name="Path 6901" d="M4876.321,1812.984a1.63,1.63,0,1,0,1.629-1.63A1.629,1.629,0,0,0,4876.321,1812.984Z" transform="translate(-4763.729 -1228.911)" fill="#fff" opacity="0.44"/>
        <path id="Path_6902" data-name="Path 6902" d="M4904.594,1662.1a1.629,1.629,0,1,0,1.628-1.629A1.628,1.628,0,0,0,4904.594,1662.1Z" transform="translate(-4781.401 -1134.6)" fill="#fff" opacity="0.44"/>
        <circle id="Ellipse_182" data-name="Ellipse 182" cx="3.508" cy="3.508" r="3.508" transform="translate(254.829 444.515) rotate(-67.663)" fill="#fff" opacity="0.44"/>
        <path id="Path_6903" data-name="Path 6903" d="M5015.973,1276.9a3.508,3.508,0,1,0,3.508-3.506A3.508,3.508,0,0,0,5015.973,1276.9Z" transform="translate(-4851.018 -892.659)" fill="#fff" opacity="0.44"/>
        <path id="Path_6904" data-name="Path 6904" d="M5059.626,1640.918a3.508,3.508,0,1,0,3.507-3.506A3.507,3.507,0,0,0,5059.626,1640.918Z" transform="translate(-4878.303 -1120.189)" fill="#fff" opacity="0.44"/>
      </g>
      <g id="Group_1281" data-name="Group 1281" transform="translate(3370.465 113.432)">
        <g id="Group_1280" data-name="Group 1280">
          <path id="Path_6905" data-name="Path 6905" d="M3476.77,464.706a61.759,61.759,0,0,1-7.5-29.976c.625-35.714,35.145-68.7,97.2-92.872,60.8-23.691,140.977-36.738,225.761-36.738,91.231,0,176.454,14.767,239.974,41.579,60.923,25.7,94.475,59.737,94.477,95.836a60.538,60.538,0,0,1-4.31,22.171h2.787a62.824,62.824,0,0,0,4.134-22.171c0-37.216-34.122-72.106-96.075-98.241-63.832-26.945-149.417-41.784-240.987-41.784-85.1,0-165.613,13.11-226.708,36.917-63.106,24.584-98.216,58.414-98.861,95.258a63.822,63.822,0,0,0,7.209,30.021Z" transform="translate(-3466.648 -348.51)" fill="#fff"/>
        </g>
      </g>
      <g id="Group_1283" data-name="Group 1283" transform="translate(3401.643 220.009)">
        <g id="Group_1282" data-name="Group 1282">
          <path id="Path_6906" data-name="Path 6906" d="M3558.967,733.68a55.964,55.964,0,0,1-6.8-27.156c.566-32.353,31.838-62.231,88.052-84.13,55.078-21.463,127.71-33.281,204.516-33.281,82.646,0,159.85,13.377,217.392,37.665,55.192,23.284,85.585,54.115,85.587,86.818a54.813,54.813,0,0,1-3.9,20.085h2.525a56.906,56.906,0,0,0,3.746-20.085c0-33.714-30.914-65.32-87.034-89-57.825-24.409-135.357-37.851-218.311-37.851-77.092,0-150.029,11.876-205.376,33.441-57.166,22.272-88.971,52.918-89.556,86.3a57.822,57.822,0,0,0,6.528,27.2Z" transform="translate(-3549.799 -586.748)" fill="#fff"/>
        </g>
      </g>
      <g id="Group_1285" data-name="Group 1285" transform="translate(3420.661 357.039)">
        <g id="Group_1284" data-name="Group 1284">
          <path id="Path_6907" data-name="Path 6907" d="M3609.1,1089.828a52.41,52.41,0,0,1-6.365-25.435c.53-30.3,29.822-58.288,82.474-78.8,51.585-20.1,119.617-31.173,191.557-31.173,77.409,0,149.722,12.527,203.617,35.278,51.695,21.809,80.165,50.688,80.166,81.318a51.377,51.377,0,0,1-3.656,18.811h2.364a53.308,53.308,0,0,0,3.508-18.811c0-31.577-28.955-61.182-81.52-83.358-54.161-22.861-126.781-35.454-204.479-35.454-72.207,0-140.523,11.124-192.363,31.323-53.544,20.86-83.333,49.566-83.88,80.826a54.115,54.115,0,0,0,6.116,25.473Z" transform="translate(-3600.519 -952.205)" fill="#fff"/>
        </g>
      </g>
      <g id="Group_1324" data-name="Group 1324" transform="translate(3646.346 84.486)">
        <g id="Group_1301" data-name="Group 1301" transform="translate(0 91.312)">
          <path id="Path_6908" data-name="Path 6908" d="M4481.2,693.936l34.722,26.228s5.428,4.181,7.957,7.742c3.589,5.052,4.216,10.323,0,13.282,0,0,2.611,7.622-50.036-22.6Z" transform="translate(-4372.072 -609.535)" fill="#f89971"/>
          <g id="Group_1299" data-name="Group 1299">
            <g id="Group_1298" data-name="Group 1298">
              <g id="Group_1287" data-name="Group 1287" transform="translate(74.551 73.236)">
                <g id="Group_1286" data-name="Group 1286">
                  <path id="Path_6909" data-name="Path 6909" d="M4466.457,694.193l-37.178-25.438s-11.373-9.126-22.254-1.658c-9.81,6.731-5.381,21.784.4,26.156,4.059,3.067,27.854,16.9,47.67,23.29C4455.1,716.542,4467.938,705.841,4466.457,694.193Z" transform="translate(-4401.244 -664.159)" fill="url(#radial-gradient)"/>
                </g>
              </g>
              <g id="Group_1295" data-name="Group 1295">
                <g id="Group_1294" data-name="Group 1294">
                  <g id="Group_1293" data-name="Group 1293">
                    <g id="Group_1292" data-name="Group 1292">
                      <g id="Group_1288" data-name="Group 1288" transform="translate(50.526 226.807)">
                        <path id="Path_6910" data-name="Path 6910" d="M4373.422,1721.505l6.947-1.995-5.974-4.614-1.835,4.146Z" transform="translate(-4359.29 -1474.488)" fill="#0f0c12"/>
                        <path id="Path_6911" data-name="Path 6911" d="M4353.619,1678.354l.037,1.533-11.845-4.332s-2.694-18.008,1.369-27.242l23.08,2.2,3.387,9.226s14.22,11.7,23.862,17.734c0,0,6.367,3.669,5.791,8.564,0,0-1.848,8.952-16.418,4.2,0,0-10.322-3.616-17.58-6.649C4365.3,1683.589,4357.43,1677.758,4353.619,1678.354Z" transform="translate(-4339.523 -1432.87)" fill="#1c1a3a"/>
                        <path id="Path_6912" data-name="Path 6912" d="M4353.619,1678.354c3.811-.6,11.683,5.235,11.683,5.235,7.258,3.033,17.58,6.649,17.58,6.649,14.57,4.754,16.418-4.2,16.418-4.2a5.855,5.855,0,0,0-.544-3.069c-5.4,7.716-49.521-17.489-42.358-17.489,4.167,0,10.032-2.383,14.623-4.618-.868-.706-1.374-1.122-1.374-1.122l-3.387-9.226-23.08-2.2c-4.063,9.233-1.369,27.242-1.369,27.242l11.845,4.332Z" transform="translate(-4339.523 -1432.87)" fill="#141127"/>
                        <path id="Path_6913" data-name="Path 6913" d="M4338.581,1124.664s9.479,52.133,10.814,57.227,2.741,25.68,2.741,25.68-6.237,21.586-6.931,26.884c-.694,5.273-8.035,59.423-8.035,59.423s3.405,11.092,30.615-.628c0,0,9.3-56.362,14.222-78.6,5.321-24.053,3.914-88.21,4.509-103.567a298.175,298.175,0,0,0-1.131-37.35Z" transform="translate(-4337.169 -1073.729)" fill="#012341"/>
                      </g>
                      <g id="Group_1289" data-name="Group 1289" transform="translate(0 217.981)">
                        <path id="Path_6914" data-name="Path 6914" d="M4286,1789.193l6.95-1.992-5.978-4.621-1.833,4.149Z" transform="translate(-4254.121 -1507.968)" fill="#0f0c12"/>
                        <path id="Path_6915" data-name="Path 6915" d="M4230.355,1746.046l.036,1.535-11.845-4.334s-2.692-18.008,1.372-27.241l23.078,2.2,3.388,9.23s14.216,11.694,23.859,17.727c0,0,6.37,3.668,5.793,8.569,0,0-1.849,8.95-16.419,4.2,0,0-10.321-3.616-17.582-6.65C4242.036,1751.285,4234.164,1745.45,4230.355,1746.046Z" transform="translate(-4211.953 -1466.355)" fill="#1c1a3a"/>
                        <path id="Path_6916" data-name="Path 6916" d="M4230.355,1746.046c3.809-.6,11.68,5.239,11.68,5.239,7.26,3.033,17.582,6.65,17.582,6.65,14.571,4.75,16.419-4.2,16.419-4.2a5.831,5.831,0,0,0-.543-3.066c-5.4,7.716-49.521-17.494-42.358-17.494,4.165,0,10.029-2.379,14.623-4.618-.873-.709-1.374-1.118-1.374-1.118l-3.388-9.23-23.078-2.2c-4.063,9.233-1.372,27.241-1.372,27.241l11.845,4.334Z" transform="translate(-4211.953 -1466.355)" fill="#141127"/>
                        <path id="Path_6917" data-name="Path 6917" d="M4202.418,1306.034s11.282,7.63,34.92,0c0,0-1.687-71.73,6.657-95.5,0,0,12.454-22.48,13.585-30.972s19.412-75.571,22.743-83.419c2.047-4.838,12.687-37.413,12.121-44.463s-71.343,13.257-71.343,13.257,1.428,4.6.636,28.038c-.925,27.351-4.717,75.458-6.036,77.722,0,0-7.972,22.258-11.318,37.728C4202.783,1215.823,4202.418,1306.034,4202.418,1306.034Z" transform="translate(-4202.418 -1050.191)" fill="#022e58"/>
                      </g>
                      <path id="Path_6918" data-name="Path 6918" d="M4232.551,689.757s-2.5-3.795,24.614-17.74c5.225-2.689,36.265-6.794,48.227-7.067,7.027-.161,20.631,32.929,13.673,71.6,0,0,2.347,72.62,2.347,89.035,0,0-17.557,16-46.238,15.994,0,0-25.219-2.011-40.8-17.339,0,0,3.134-20.894,4.264-43.908,0,0,2.666-28.935-2.22-42.587C4233.127,728.558,4221.6,694.913,4232.551,689.757Z" transform="translate(-4218.365 -591.417)" fill="url(#radial-gradient)"/>
                      <path id="Path_6919" data-name="Path 6919" d="M4240.5,849.407l-10.6,60.1s-9.045,2.177-11.9-1.16l2.766-60.315Z" transform="translate(-4212.156 -705.852)" fill="#f89971"/>
                      <g id="Group_1291" data-name="Group 1291" transform="translate(27.711)">
                        <g id="Group_1290" data-name="Group 1290">
                          <path id="Path_6920" data-name="Path 6920" d="M4338.3,616.238a132.723,132.723,0,0,0,1.332,18.144s-3.112,6.124-5.678,7.47c0,0-19.839-4.8-28.055-17.74,0,0,5.207-12.782.658-34.089l3.675-1.717Z" transform="translate(-4294.809 -543.512)" fill="#f0855c"/>
                          <path id="Path_6921" data-name="Path 6921" d="M4305.9,624.112a32.807,32.807,0,0,0,8.906,8.975c-2-6.276-2.752-21.094-2.752-21.094,8.985,7.508,21.084,11.749,26.57,13.018-.046-4.573-.323-8.773-.323-8.773l-28.069-27.931-3.675,1.717C4311.105,611.33,4305.9,624.112,4305.9,624.112Z" transform="translate(-4294.809 -543.512)" fill="#c86541"/>
                          <path id="Path_6922" data-name="Path 6922" d="M4345.283,503.132l2.185,16.6s.107,16.2-1.2,23.436c0,0-2.008,13.714-4.619,16.653a14.082,14.082,0,0,1-10.269,1.308c-4.357-1.091-17-5.519-21.8-12.993,0,0-6.118-10.461-6.021-13.724,0,0-1.345,3.095-3.569-.818s-3.124-11.42-2.468-13.706,3.7-1.305,4.406-1.305,1.8.979,2.387,3.265-2.408-15.5,2.31-21.542C4313.508,491.494,4334.72,487.578,4345.283,503.132Z" transform="translate(-4289.439 -483.676)" fill="#f89971"/>
                          <path id="Path_6923" data-name="Path 6923" d="M4290.432,505.777s.883,6.165,1.964,6.7,2.432-2.1,2.036-3.812,3.979-7.763,4.706-15.06c0,0,4.811.356,11.93.889s17.429,1.61,21.568-2.638c1.162-1.194-.147-11.7-3.393-14.117,0,0-12.513-12.933-38.767-7.622,0,0-16.984,2.433-13.741,33.223a60.908,60.908,0,0,0,7.785,17.323,31.763,31.763,0,0,1,5.341,14.834s1.978-9.516.578-15.921c0,0-2.609,5.5-5.628-6.85,0,0-1.518-8.06,1.371-9.14A3.775,3.775,0,0,1,4290.432,505.777Z" transform="translate(-4276.323 -468.838)" fill="#2c1c22"/>
                        </g>
                      </g>
                    </g>
                  </g>
                </g>
              </g>
              <g id="Group_1297" data-name="Group 1297" transform="translate(4.281 88.805)">
                <g id="Group_1296" data-name="Group 1296">
                  <path id="Path_6924" data-name="Path 6924" d="M4239.294,772.979l9.481-44.038s4.146-13.982-6.883-21.23c-9.944-6.531-24.042,3.831-25.622,14.879-.722,5.036-3.54,27.567-1.964,48.33C4214.308,770.92,4229.07,778.754,4239.294,772.979Z" transform="translate(-4213.836 -705.68)" fill="url(#radial-gradient)"/>
                </g>
              </g>
            </g>
          </g>
          <g id="Group_1300" data-name="Group 1300" transform="translate(52.871 27.226)">
            <path id="Path_6925" data-name="Path 6925" d="M4380.805,545.49l-4.863-3.993s-3.984-.742-8.021,3.653c0,0-1.311,2.705-8.875,1.553-6.805-1.034-10.935.7-11.792,1.282,0,0-6.408,3.979-2.645,16.391l3.467,2.846Z" transform="translate(-4343.425 -541.45)" fill="#1a1e3e"/>
            <path id="Path_6926" data-name="Path 6926" d="M4370.011,571.5l32.244-7.836a1.552,1.552,0,0,1,.771.223h0l0,0a.418.418,0,0,1,.062.044l2.391,1.694-2.229,1.6-.516,10.058a2.008,2.008,0,0,1-.917.672c-.436.173-17.544,4.382-25.668,6.414l-4.842,3.464-2.076-1.74c-.033-.006-.562-.4-.508-1.485l.609-12.32S4369.235,571.687,4370.011,571.5Z" transform="translate(-4359.236 -555.333)" fill="#1a1e3e"/>
            <path id="Path_6927" data-name="Path 6927" d="M4353.52,556.336l31.988-7.834a1.542,1.542,0,0,1,.771.224h0l0,0c.019.016.039.028.062.044l8.955,7.312-5.985,2.966-4.97,1.714a2.009,2.009,0,0,1-.918.672c-.436.171-8.829,11.693-16.955,13.724l-5.494,3.2-8.272-6.663c-.032-.006-.562-.4-.508-1.487l.647-13.081S4352.748,556.525,4353.52,556.336Z" transform="translate(-4348.906 -545.858)" fill="#c7cae5"/>
            <path id="Path_6928" data-name="Path 6928" d="M4363.868,590.49l-2.89,1.68-8.272-6.663c-.032-.006-.562-.4-.508-1.487l.647-13.081a.635.635,0,0,1,.054-.335l9.731,8.47Z" transform="translate(-4348.906 -559.672)" fill="#8b93b9"/>
            <path id="Path_6929" data-name="Path 6929" d="M4409.676,569.572l-.64,12.513a2.015,2.015,0,0,1-.918.671c-.651.256-32.882,8.177-32.882,8.177s-.583-.085-.512-1.487l.632-12.327s-.051-.586.724-.776l32.475-7.88S4409.823,568.453,4409.676,569.572Z" transform="translate(-4362.984 -558.334)" fill="#272f60"/>
            <path id="Path_6930" data-name="Path 6930" d="M4410.471,571.55l-.6,11.659a1.861,1.861,0,0,1-.854.625c-.608.239-30.644,7.621-30.644,7.621s-.541-.078-.475-1.385l.587-11.487s-.047-.545.672-.722l30.263-7.342S4410.61,570.506,4410.471,571.55Z" transform="translate(-4364.971 -559.619)" fill="#0f153d"/>
            <path id="Path_6931" data-name="Path 6931" d="M4345.926,580.033l1.941,1.321.48-9.393-1.93-1.561Z" transform="translate(-4344.988 -559.545)" fill="#c7cae5"/>
          </g>
          <path id="Path_6932" data-name="Path 6932" d="M4277.027,518.432a141.284,141.284,0,0,0,26.909,21.7l-.355,7.347s-19.18-12.193-27.257-22.076A38.108,38.108,0,0,1,4277.027,518.432Z" transform="translate(-4248.611 -499.837)" fill="#060d27"/>
          <path id="Path_6933" data-name="Path 6933" d="M4575.48,699.486s28.784-53.295,32.935-64.038c0,0,6.342-4.747,8.675,2.978,0,0-17.954,54.644-21.95,61C4589.663,708.135,4580.221,704.706,4575.48,699.486Z" transform="translate(-4435.599 -572.075)" fill="#f89971"/>
        </g>
        <path id="Path_6934" data-name="Path 6934" d="M4230.938,995.971a194.839,194.839,0,0,1,2.04,31.337c-.135,12.142-2.062,36.45-2.062,36.45l-5.031.513s-7.65-37.63-7.889-63.454Z" transform="translate(-4212.156 -707.008)" fill="#f89971"/>
        <path id="Path_6935" data-name="Path 6935" d="M4232.872,1152.822c-.573-2.331-.727-11.776-.119-17.282.342-3.121-2.963-28.666-3.174-29.814.751-.378,8.384-11.348,10.652-11.341.141,2.277,0,33.68,0,33.68a29.557,29.557,0,0,1,6.53,10.891c1.414,4.6,2.634,8.1,3.29,9.833s-.583,2.187-.583,2.187c-1.8-.365-4.458-5.589-4.75-6.218.5,1.337,1.632,6.285,1.632,6.285s2.6,11.9,2.041,12.21-1.286-.05-1.854-1.286-3.339-11.1-3.44-11.611-.256-1.129-.566-1.129,3.855,16.183,3.495,16.39c0,0-.05,1.027-.769,1.078s-1.08.007-1.491-1.49c-.362-1.312-4.161-14.387-4.161-14.387s-.309-.615-.669.1,3.034,14.85,3.034,14.85.511,1.182-.363,1.645-1.593.362-2.055-1.233c0,0-3.235-13.513-3.6-13.461s-.1.822-.1.822l1.594,12.433a1.219,1.219,0,0,1-1.233,1.234c-1.182.1-1.662-4.094-1.662-4.094Z" transform="translate(-4219.395 -768.522)" fill="#f89971"/>
        <path id="Path_6936" data-name="Path 6936" d="M4676.9,607.011l-3.517-1.866c-3.886-1.784-5.9-.442-5.9-.442-4.219-.483-5.691,1.422-6.81,4.818-1.213,3.689-1.78,5.905-.727,7.12,1.43,1.654,13.652,2.165,18.775,1.7,3.561-.322,4.291-2.1,4.291-2.1a13.228,13.228,0,0,0,3.236-.891,12.645,12.645,0,0,0,1.7-1.54,1.932,1.932,0,0,0,1.455-.485c.485-.567,3.156-5.583,3.156-5.583s1.781-2.752.731-2.913-2.43,1.295-2.834,1.86c0,0,1.884-5.238,1.3-5.828-.972-.97-2.349.649-2.509,1.216a19.19,19.19,0,0,1-.97,2.1s1.214-4.614.322-5.261-1.458.337-2.509,2.509c0,0-1.294,2.833-1.7,3.965,0,0,.891-4.128.972-4.855s.405-3.074-.728-2.752-2.465,4.105-2.916,5.585C4681.171,605.176,4678.988,605.672,4676.9,607.011Z" transform="translate(-4488.05 -458.104)" fill="#f89971"/>
        <g id="Group_1311" data-name="Group 1311" transform="translate(116.847)">
          <path id="Path_6937" data-name="Path 6937" d="M4657.8,297.191a71.876,71.876,0,1,1-71.876-71.88A71.875,71.875,0,0,1,4657.8,297.191Z" transform="translate(-4514.047 -225.311)" fill="#2778be" opacity="0.6"/>
          <g id="Group_1310" data-name="Group 1310" transform="translate(4.429 2.825)">
            <g id="Group_1309" data-name="Group 1309">
              <g id="Group_1308" data-name="Group 1308" style="isolation: isolate">
                <g id="Group_1305" data-name="Group 1305" transform="translate(22.788 2.841)" style="isolation: isolate">
                  <g id="Group_1304" data-name="Group 1304">
                    <g id="Group_1302" data-name="Group 1302">
                      <path id="Path_6938" data-name="Path 6938" d="M4628.946,240.767l.038-.016a.358.358,0,0,1-.033.019c.029,0,.708-.3.8-.346a.263.263,0,0,0-.064.022.059.059,0,0,0,.02-.01l-.764.331h0" transform="translate(-4613.081 -240.424)" fill="url(#linear-gradient-3)"/>
                      <path id="Path_6939" data-name="Path 6939" d="M4621.157,242.795c.019-.009.044-.019.063-.029a.066.066,0,0,0,.017-.01c.022-.008.039-.018.058-.025l.082-.039c.031-.013.061-.031.1-.045l.11-.05c.035-.018.069-.032.105-.047s.067-.032.1-.045l.081-.037c.473-.215.938-.454,1.412-.666a.184.184,0,0,1-.028.013c.2-.113.416-.2.628-.289l-2.79,1.305c.021-.012.047-.024.067-.035" transform="translate(-4608.17 -241.112)" fill="url(#linear-gradient-4)"/>
                      <path id="Path_6940" data-name="Path 6940" d="M4588.553,252.8a9.786,9.786,0,0,0-1.92,1.853c.293-.056.48-.29.727-.43-.071.184-.255.294-.33.476a8.332,8.332,0,0,0,1.738-1.469c-.115,0-.115,0-.616.3.113-.128.254-.225.375-.347a.67.67,0,0,0-.2.059c.226-.36.65-.5.917-.814a1.187,1.187,0,0,0-.186.073c.313-.3,1.318-.974,1.325-.98-.17.154-.357.287-.53.439a34.055,34.055,0,0,0,3-2.035,1.288,1.288,0,0,1-.086.142,14.618,14.618,0,0,0,2.517-1.506c-.061.028-.117.06-.178.088.975-.814,2.234-1.148,3.231-1.92-.156.061-.306.143-.456.215.1-.063.211-.121.315-.18-1.747.977-4.072,2.3-5.777,3.355l-3.872,2.679h0" transform="translate(-4586.633 -244.365)" fill="url(#linear-gradient-5)"/>
                      <path id="Path_6941" data-name="Path 6941" d="M4682.2,604.4c.089-.038.177-.078.264-.124a1.842,1.842,0,0,0-.427.081c.091-.066.2-.107.293-.171a6.473,6.473,0,0,0-1.055.348,2.8,2.8,0,0,0,.375-.184c-.141,0-.611,0-.7.246-.126.043-1.228.258-1.468.283.415-.151.863-.167,1.272-.331a.448.448,0,0,0-.077,0c-.211.018-1.992.3-2,.3-1.144.209-2.306-.061-3.449.151.427.328.885.026,1.327.067a10.073,10.073,0,0,1-2.241-.1.726.726,0,0,0,.2.063,11.01,11.01,0,0,1-1.4-.141c.016,0,.038-.006.051-.009-.164-.031-.775-.1-.782-.1.1.027.205.045.307.068-.087-.009-.177-.022-.266-.038.6.1,1.4.234,2,.321l.309.045a11.921,11.921,0,0,0,2.986.2,1.29,1.29,0,0,1-.237-.048c3.718-.505,4.033-.642,4.723-.936" transform="translate(-4640.233 -467.789)" fill="url(#linear-gradient-6)"/>
                    </g>
                    <g id="Group_1303" data-name="Group 1303" transform="translate(80.126 3.676)">
                      <path id="Path_6942" data-name="Path 6942" d="M4842.392,404.975c-.159,18.4-.175,20.324-3.79,27.938-6.269,13.206-6.269,13.206-24.042,30.681.1-.008.239-.016.341-.027-.1.1-.1.1-1.835,1.384a31.557,31.557,0,0,0,5.477-3.862l2.3-1.979a72.792,72.792,0,0,0,8.159-8.631c4.163-5.623,4.413-5.961,6.562-9.734,3.237-6.324,3.431-6.7,4.893-10.68,2.232-7.027,2.32-7.3,3.1-11.47,1.035-7.319,1.12-7.914,1.173-12.854-.081-2.089-.139-4.879-.319-6.962.272,3.243.272,3.243-.1,8.125-.332-.713-.244-1.526-.536-2.248l-.359-.073c-.275-.561.078-1.333-.593-1.762-.093.036-.218.088-.313.124-.036.609-.1,1.419-.112,2.03" transform="translate(-4808.291 -343.079)" fill="url(#linear-gradient-7)"/>
                      <path id="Path_6943" data-name="Path 6943" d="M4827.6,287.919c.1-.012.218-.032.314-.044a16.828,16.828,0,0,1,1.241,1.444c.664-.048.664-.048.98.185,0-.107.006-.253.008-.362.083.042.2.1.282.138.007-.032.007-.032-.221-2.44a16.87,16.87,0,0,0,1.393,2.335c-.183-2.535-.183-2.535-.57-3.583a2.983,2.983,0,0,1,.5.858c-.023-.089-.049-.21-.07-.3.661,1.283.9,2.534,1.539,5.873-.221-.567-.325-1.173-.591-1.728a13.878,13.878,0,0,1,.268,2.213c-.171-.107-.171-.107-1.964-4.283.161.99.444,1.958.543,2.963a2.8,2.8,0,0,1-.508-.508c-.467,1.381-.552,1.629,2.167,10.18,1.093,3.439,2.564,6.756,3.3,10.307.325-1.106.325-1.106-.2-8.835l-.246-1.574c-1.55-7.4-1.579-7.541-2.938-11.518-2.649-6.786-2.753-7.049-4.741-10.746-3.667-6.174-3.81-6.414-6.419-9.809-4.459-5.312-4.726-5.631-8.019-8.722a76.128,76.128,0,0,0-13.323-9.735c13.45,7.638,23.383,20.993,27.274,37.69" transform="translate(-4800.329 -250.229)" fill="url(#linear-gradient-8)"/>
                    </g>
                    <path id="Path_6944" data-name="Path 6944" d="M4844,508.612c.05-.044.1-.085.146-.132-.049.044-.1.085-.146.132h0m6.683-12.458c.019-.035,2.542-4.028,2.549-4.035l.032.117c-.007.032-.865,3.6-1.081,3.94a9.412,9.412,0,0,0-.891,1.444.223.223,0,0,0,.095.29c.182.141.185.457.009.936a15.08,15.08,0,0,1-1.553,2.808l-.095.141c-.526.738-1.2,1.349-1.769,2.048-.659.811-.87,1.891-1.6,2.664-.028.028-2.959,3.076-4.049,3.129.03-.243.035-.274,1.192-1.746a21.415,21.415,0,0,0,2.54-3.7c.474-.924,1.4-1.471,1.964-2.319s.688-1.866,1.162-2.742c.227-.421.657-.683.867-1.115a2.157,2.157,0,0,0,.2-.779,2.52,2.52,0,0,1,.427-1.079" transform="translate(-4746.457 -397.745)" fill="url(#linear-gradient-9)"/>
                  </g>
                </g>
                <g id="Group_1307" data-name="Group 1307" style="isolation: isolate">
                  <g id="Group_1306" data-name="Group 1306">
                    <path id="Path_6945" data-name="Path 6945" d="M4598.5,354.4c-.269,1.049-.269,1.049-3.332,3.228.117.183.269.422.383.6-.055.228-.131.535-.188.762a10.906,10.906,0,0,0-1.532.622,3.413,3.413,0,0,0,.628,1.371c-3.186,7.814-3.186,7.814-7.146,7.207-.772,1.244-.772,1.244-1.8,1.345.048.483.144,1.125.234,1.6-1.225,1.112-1.225,1.112-1.517,1.813-.229.041-.533.1-.762.135a2.667,2.667,0,0,1-.678,1.192c-.243-.019-.575-.048-.82-.066.208.113.483.267.688.381l-.794,0c1.768.59,1.768.59,2.032.69-.223-.029-.523-.069-.748-.1l-.308-.045c-.6-.1-1.4-.223-2-.321l-.691-.139c-.441-.089-.441-.092-.441-.092h-.006v0c-4.688-1.031-7.658-4.052-9.823-6.255.048-1.05-.617-2.067-1.98-3.028.136-.193.313-.451.446-.646a8.4,8.4,0,0,0-1.075-1.091c-.153-1.872-3.959-3.214-4-3.222-.063-.229-.146-.535-.21-.762-2.183-.788-3.386-1.225-9.8-9.815.047-.237.113-.551.161-.785l-.543-.459c-.2.075-.465.174-.667.248-1.184-.946-1.173-1.015-.9-2.8a6.278,6.278,0,0,0,1.282-.872c-.9-.388-1.966-.274-2.754-.965.167-.147.395-.338.565-.483a10.04,10.04,0,0,1-.466-2.943c.225-.049.529-.12.756-.168,0-.234-.009-.546-.011-.779l.727.181a4.463,4.463,0,0,0-.22-1.655c.217-.107.5-.251.714-.359a2.459,2.459,0,0,0-.6-1.324,4.011,4.011,0,0,1,1.053-1.189c-.417-.943-.589-1.331-2.811-3.776-.1.192-.23.447-.327.637.08.217.189.507.271.725-.2.076-.469.181-.668.259-.736-.394-1.11-1.175-1.738-1.683-.212.057-.5.129-.708.186-.216-.132-.505-.306-.725-.436a12.663,12.663,0,0,0,.121-1.666c-.167-.159-.388-.375-.555-.536-1.531.054-1.531.054-2.109-.447a10.905,10.905,0,0,1,1.37-.83c.06-.311.141-.725.2-1.036a3.49,3.49,0,0,0-.971,1.09c-1.748-.769-1.755-.893-1.951-4.1a16.569,16.569,0,0,0-2.826-1c-.634-1.651-1.536-3.174-2.278-4.772-.212-.012-.494-.028-.707-.042a2.807,2.807,0,0,1-.9,1.063c-.51-.233-.51-.233-3.656-3.474.714-2.951-1.946-4.747-2.482-7.268-.564-2.655-.126-5.368-.476-8.035-.449-3.4.108-6.831-.384-10.225-.887,1.38-.79,12.425-.578,14.305-1.75-1.192-1.621-9.711-1.606-9.788.126.182.294.425.421.6.688-1.738,1.236-10.071,1.24-10.154-.182-.167-.422-.393-.6-.558.708-5.506.708-5.506,9.339-20.36.208-.023.486-.051.694-.073C4551.4,246,4551.4,246,4552.708,245.05c-.753.432-1.481.9-2.251,1.3a37.023,37.023,0,0,1,3.994-2.61,21.588,21.588,0,0,0-3.884,2.483l3.871-2.679c1.72-1.034,4.018-2.4,5.778-3.355.435-.218,1.012-.505,1.451-.716-.032.009-.071.024-.1.035l2.791-1.305.154-.07.765-.331c-.395.193-.924.445-1.323.633,5.287-2.244,5.287-2.244,7.344-2.22-3.175,1.775-3.175,1.775-6.675,3.972.809-.048,1.425-.619,2.189-.8-.177.141-.409.327-.585.466.267-.051.624-.117.893-.168-.2.173-.472.4-.675.576a7.8,7.8,0,0,0,1.605-.429,11.785,11.785,0,0,1-1.451.973l.745-.214c-.858.55-1.268,1.554-2.109,2.124,0,.22.012.511.017.732l-.693.384c.179.128.414.3.592.428-.129.189-.31.439-.44.628.6-.056.6-.056,3.669-1.244a5.174,5.174,0,0,1-2.286-.076c1.472-2.271,1.472-2.271,6.767-4.176-1.315.135-2.51.814-3.849.85,1.818-1.243,5.852-2.9,7.487-2.552a27.727,27.727,0,0,0-3.177,2.436c.444-.136,1.031-.325,1.468-.476-.694.436-1.416.831-2.119,1.257,1.105-.358,2.141-.9,3.252-1.229-.048.045-7.082,4.762-8.864,4.811-.177.391-.391.917-.542,1.318a6.7,6.7,0,0,0,2.214-.247c.3-.645.3-.645,2.445-1.733-.175.864-.175.864-1.5,1.711,4.2-.019,5.975-4.309,9.554-5.425l.54.442c-5.911,3.126-5.911,3.126-7.322,4.664.217,0,.5-.01.719-.016-.09.31-.09.31-1.963,2.179,0,.21.01.491.016.7.035-.029,3.568-2.947,3.575-4.178,3.39-3.124,5.689-3.061,5.784-3.059a10.662,10.662,0,0,1-2.08,1.271,15.806,15.806,0,0,0,2.178-.776c.162.149.377.347.538.493l.8-.283a15.255,15.255,0,0,1-.921,2.043c.111.18.263.42.374.6-.1.205-.238.48-.34.688.2.075.459.178.655.256a5.394,5.394,0,0,1-.968,1.1c.22.023.513.059.731.083-1.451,1.233-1.451,1.233-1.611,1.7a2.7,2.7,0,0,1,1.352,1.777c.431.1,1,.25,1.432.369-.885,1.125-2.109,1.923-2.969,3.076a11.754,11.754,0,0,1-1.024-2.254c-.223.083-.519.2-.742.278.656,2.793.656,2.793-.723,4.255a2.567,2.567,0,0,1-.84-1.116c-.289.983.381,1.9.2,2.875-.227.06-.528.142-.757.2-.364-.284-.857-.655-1.242-.917-.076-.7-.076-.7-1.034-1.967.234-1.258.125-1.4-.406-2.093a13.8,13.8,0,0,1-1.414-.218,4,4,0,0,1,1.269-1.21c.136.183.325.427.462.608.3-.132.3-.132,3.176-2.516a3.043,3.043,0,0,1,.37-1.333c-.205-.063-.472-.146-.673-.206a20.558,20.558,0,0,1,1.182-2.061,8.459,8.459,0,0,1-1.462-.159c-2.462,3.186-2.462,3.186-6.288,4.429a14.5,14.5,0,0,0,.215,3.089c-.12.223-.285.52-.407.74-.211.054-.495.126-.709.179-.082-.224-.192-.525-.272-.748-.8.057-1.487.536-2.284.593.088-.2.211-.469.3-.668-.187-.1-.433-.24-.62-.34a37.227,37.227,0,0,1,3-2.308c-1.3.078-1.864,1.728-3.288,1.552-1.812,1.454-1.812,1.454-2.685,1.188-4.014,2.538-4.014,2.538-5.229,3.673l.624.333c-.087,1.474-.121,1.5-.968,2.128a2.176,2.176,0,0,0,1,.923,5.645,5.645,0,0,0,1.017,2.059l-.359.661c.132.205.311.477.444.679.427.072.995.177,1.42.265a4.232,4.232,0,0,1-.7,1.551c.315.847.315.847-1.068,2.436a9.693,9.693,0,0,1,.572,2.348c.2.055.475.133.677.19a24.129,24.129,0,0,1,1.888-3.543c-.992-2.339,3.629-4.411,3.678-4.43.04-.218.086-.51.126-.728-.174-.2-.4-.468-.576-.664l4.9-6.37c.917,1.44,1.472,1.346,2.314,1.205-.015.451-.021,1.053-.016,1.5a3.894,3.894,0,0,0,1.374-.534c-.512,1.416-1.915,2.462-1.725,4.168,1.894.485,2.339-1.857,3.912-2a46.06,46.06,0,0,1-.207,7.969c2.9,1.113,2.9,1.113,2.011,8.164.579.211.579.211,2.2.029a2.367,2.367,0,0,1-.3,1.34c2.3,5.794-1.839,3.965-1.882,3.939a2.694,2.694,0,0,1-.475-.52c.141-.226.33-.523.47-.745l-.639-.334c-.2.079-.476.181-.681.259-.776-.384-.776-.384-2.2-.366-.153-.171-.354-.4-.506-.574a9.817,9.817,0,0,0,3.055-5.714c-.953.505-1.564,1.471-2.563,1.922a3.944,3.944,0,0,1-1.218-.99c-.12.18-.275.422-.391.6.208.39.455.927.621,1.336-.135.165-.318.384-.457.547-5.816-1.5-5.816-1.5-5.982-.318,3.223.411,3.223.411,3.784.8-.509.978-1.773,1.419-1.905,2.667a2.617,2.617,0,0,0,1.384.514,3.5,3.5,0,0,0,1.183.984c1.135-1.419,1.135-1.419,1.754-1.561.891,1.285.891,1.285.8,2.075-1.582.655-8.344,3.07-8.349,3.069.6-1.261,1.882-1.832,2.781-2.792-.209-.063-.49-.151-.7-.215-1.878,1.438-4.461,1.409-6.259,3.011.215,3.272.215,3.272-1.937,2.622-1.092,1.314-1.209,3.263-2.779,4.264-.173-.153-.4-.355-.569-.507a4.469,4.469,0,0,0-.205-1.544,6.475,6.475,0,0,0-1.308,1.05,2.092,2.092,0,0,0,1.321,2.059c.006.435.006.435-7.146,8.227-2.369,2.578-.036,3.968,3.5,6.074a6.451,6.451,0,0,1-.206,1.693,3.488,3.488,0,0,1-2.483-1.768c-.187.117-.442.273-.634.39.111,1.463.111,1.463-.35,2.262a3.818,3.818,0,0,1-1.4-.557c-.532-4.81-.917-8.285-5.273-9.525-.2.9-.259,1.175.647,2a3.078,3.078,0,0,1-1.031,1.18c-1.511-.838-1.511-.838-2.132-4.007-.24-.078-.24-.078-2.266-.025l-4.01,9.03,3.82,8.184a9.081,9.081,0,0,1,.6-1.5c.211-.02.492-.049.7-.069.292-.836.051-1.786.56-2.575a15.031,15.031,0,0,1,2.566-.276c1.249,2.9,1.249,2.9-1.113,8.7,1.362,2.091,4.063,1.273,5.752,2.652.279,7.206.279,7.206,1.212,8.7,1.676-.82,3.295.476,4.958.129a8.221,8.221,0,0,1,.964-2.109c.537.025,1.247.069,1.779.118.57-.514.973-1.216,1.708-1.545a3.464,3.464,0,0,1,1.144,1.04,12.328,12.328,0,0,1-1.964,2.342c.308,1.192.308,1.192,1.651,1.714.125-.191.294-.445.421-.636-.865-1.1-.716-1.5-.352-2.165,2.229-.1,3.441,2.653,5.836,2.08,1.941-.463,3.588-1.79,5.641-1.922.029.218.066.506.094.724-.343.388-.343.388-2.439,1.107-.107.221-.252.516-.357.737a3.174,3.174,0,0,0,1.425.151l.589.469c-.151.22-.357.511-.51.731.081.224.191.526.271.751,2.986.538,4.042,4.46,7.456,4.248,3.347-.211,3.788,3.515,6.195,4.577.1,1.724-.4,1.859-3.189,2.606v.8c1.276.388,2.654.334,3.886.905a3.993,3.993,0,0,1,.885-1.364c.1.012,11.572,3.058,13.639,4.951-.121,1.263,1.534,1.826,1.242,3.156" transform="translate(-4525.858 -234.949)" fill="url(#linear-gradient-10)"/>
                    <path id="Path_6946" data-name="Path 6946" d="M4584.725,439.311a4.16,4.16,0,0,1-1.633-.4,6.585,6.585,0,0,0-1.759-.349c-.713-.108-.806-.576-.959-1.346-.139-.7-.23-1.156-.871-1.465a1.173,1.173,0,0,0-.933-.072c-.075.031-.245.1-.48-.139a8.351,8.351,0,0,1-.7-1.009c-.828-1.289-.87-1.286-1.157-1.262-.281.37-.174.978-.731,1.182-.238.082-.456-.07-.69-.044s-.4.255-.657.2c-.146-.032-.242-.5-.242-.505a1.21,1.21,0,0,1,.036-.645c.036-.076.1-.17.145-.243.157-.248.439-.378.595-.628s.131-.538.29-.772c.108-.157.313-.065.463.044.2.141.317.4.589.454.667.136,1.352-.055,2.018.078.579.17.856.716,1.3,1.056.343.258.792-.082,1.127.2.08.067.211.179.443.765a5.848,5.848,0,0,0,1.129,1.995c.57.614,1.505.573,2.078,1.169a3.833,3.833,0,0,1,.6,1.736" transform="translate(-4555.88 -357.156)" fill="url(#linear-gradient-11)"/>
                    <path id="Path_6947" data-name="Path 6947" d="M4592.387,455.747a.712.712,0,0,1-1.332.385c-1.111-1.372-1.111-1.372-1.292-2.338a9.439,9.439,0,0,0,.959.247c.161.032.325.012.486.037a1.829,1.829,0,0,1,1.179,1.668" transform="translate(-4565.802 -370.949)" fill="url(#linear-gradient-12)"/>
                    <path id="Path_6948" data-name="Path 6948" d="M4608.563,455.1c-.039.394-.215,1.311-.865,1.309-1.084,0-1.557-1.169-2.55-1.34-.711-.123-1.354.41-2.075.218a.542.542,0,0,1-.334-.2c-.086-.142.06-.4-.162-.463-.056-.016-.056-.016-1.664-.091a3.89,3.89,0,0,1-1.772-.571c-.233-.18-.155-.772.1-.737.512.075.741.69,1.3.672.337-.009.772-.42.56-.725a1.381,1.381,0,0,0-.683-.367c-.249-.614-.024-.8.831-.693a12.855,12.855,0,0,1,2.566.918c1.2.486,1.8.85,1.792,1.084a.739.739,0,0,0,.306.536c.245.149.516-.016.958-.293.716-.442,1.029-.444,1.392-.287,0,0,.407.187.31,1.031" transform="translate(-4571.576 -369.878)" fill="url(#linear-gradient-13)"/>
                    <path id="Path_6949" data-name="Path 6949" d="M4680.28,235.9c-.338.072-.68.1-1.02.178-.523.119-1.021.343-1.557.428-.153.022-.323-.085-.292-.158a6.081,6.081,0,0,1,2.37-.606c-.437.214-.935.218-1.377.409a5.607,5.607,0,0,0,1.063-.256,12.51,12.51,0,0,1,2.185-.39,11.5,11.5,0,0,1-1.374.4" transform="translate(-4620.584 -234.506)" fill="url(#linear-gradient-14)"/>
                    <path id="Path_6950" data-name="Path 6950" d="M4663.421,239.158a.7.7,0,0,1-.383.028c0-.054.047-.091.058-.144-.33-.132-.589.283-.921.114.019-.15-.222-.171-.371-.167-.331,0-.636.153-.961.185a.111.111,0,0,1-.007-.035l.141-.42c.56-.28,1.2-.284,1.772-.508-.307,0-.584.207-.9.138.015-.085-.072-.111-.1-.17a9.218,9.218,0,0,1,1.887-.552,5.157,5.157,0,0,0,.97-.18l.014-.016h0v0h0c-.073-.041-.2-.031-1.394.243a3.76,3.76,0,0,1-.748.147,6.894,6.894,0,0,1,1.4-.368c.08-.01.538-.105.8-.184a1.657,1.657,0,0,0-.453.069,2.581,2.581,0,0,1-1.49.069,18.385,18.385,0,0,1,4.431-.735,2.986,2.986,0,0,1-.523.145c.374-.045.708-.312,1.11-.182a6.965,6.965,0,0,1-1.471.412,4.52,4.52,0,0,0-.849.205.108.108,0,0,1,.021.066c-.062.038-.127.067-.186.11a4.533,4.533,0,0,0,1-.207,13.323,13.323,0,0,1-1.754.479s-.212.057-.267.161a2.761,2.761,0,0,0,.511-.091c-.023.038-.023.038-.285.136a6.2,6.2,0,0,0-1.262.574,9.518,9.518,0,0,0,1.675-.609,5.877,5.877,0,0,1,1.56-.381c0,.015,0,.034.007.048-.506.423-1.171.388-1.749.606.04.036.079.047.573-.075a2.028,2.028,0,0,1,.425-.09,15.142,15.142,0,0,1-2.038.825c-.093-.019-.287.109-.287.112a6.735,6.735,0,0,0,1.264-.321,11.7,11.7,0,0,1-1.213.565" transform="translate(-4610.226 -235.189)" fill="url(#linear-gradient-15)"/>
                    <path id="Path_6951" data-name="Path 6951" d="M4654.283,247.8c-.519.256-1.008.564-1.55.781a7.1,7.1,0,0,1-.777.157c-.242.066-.443.228-.68.3a.446.446,0,0,1-.132.017c-.062-.085.121-.267.121-.268.038-.034.088-.082.122-.116.212-.189.466-.322.674-.511.165-.144.275-.337.44-.479s.354-.28.533-.414a1.944,1.944,0,0,1,1.051-.454.151.151,0,0,1,0,.029c-.6.264-.229.441-.224.444.192.048.833-.267.75-.483a1.666,1.666,0,0,1,1.25-.5c.074.11-.043.19-.047.287.047.038.053.042.473-.1a2.374,2.374,0,0,1,.4-.121,8.522,8.522,0,0,1-1.543.724s-.442.026-.531.2a.072.072,0,0,0,.013.026,2.217,2.217,0,0,0,.255-.052,2.091,2.091,0,0,1-.591.53" transform="translate(-4604.159 -241.257)" fill="url(#linear-gradient-16)"/>
                    <path id="Path_6952" data-name="Path 6952" d="M4678.182,238.339c-.144.038-.168-.007-.13-.069a.851.851,0,0,1,.37-.239c.374-.132.762-.2,1.143-.3a10.521,10.521,0,0,1-1.383.61" transform="translate(-4620.976 -235.898)" fill="url(#linear-gradient-17)"/>
                    <path id="Path_6953" data-name="Path 6953" d="M4674.428,240.076s-.428.141-.413.081a1.575,1.575,0,0,1,.516-.313,5.252,5.252,0,0,1,.807-.114v.009c-.051.039-.9.333-.91.338" transform="translate(-4618.463 -237.146)" fill="url(#linear-gradient-18)"/>
                    <path id="Path_6954" data-name="Path 6954" d="M4669.038,241.484a1.55,1.55,0,0,0-.556.108c-.287.12-.521.359-.856.355,0-.006-.014-.01-.014-.016-.046-.123-.25-.232-.127-.372.2-.237.534-.2.776-.353-.028-.015-.06-.015-.09-.028a4.83,4.83,0,0,1,1.024-.543,1.153,1.153,0,0,1,.115-.04c.255-.07.523-.091.78-.164a5.579,5.579,0,0,1,1.4-.425.116.116,0,0,1,0,.022c0,.01-.014.027-.018.037-.019.047.047.069.033.116s-.087.063-.113.108c.081.028.154-.012.23-.016a.121.121,0,0,1-.044.044c-.014,0-.032.015-.047.021-.6.278-1.223.514-1.835.768-.232.1-.38.343-.652.379" transform="translate(-4614.357 -237.321)" fill="url(#linear-gradient-19)"/>
                    <path id="Path_6955" data-name="Path 6955" d="M4674.021,242.321a9.533,9.533,0,0,1-2.053,1.078c0-.246.347-.318.3-.593-.064-.039-.133-.051-.562.1a.986.986,0,0,1-.344.076c-.089,0-.2-.038-.179-.19.022-.176.2-.247.251-.4a.124.124,0,0,0-.019-.022c-.347-.009-.652.4-1.024.094.009-.1.114-.154.129-.25a.234.234,0,0,1-.039-.057,3.758,3.758,0,0,1,1.08-.543,8.852,8.852,0,0,0,1.279-.66.182.182,0,0,0-.022-.022,1,1,0,0,0-.3.081c-.14.048-.14.044-.178.016.254-.341.691-.368,1.021-.582-.133.01-.243.151-.393.063.038-.041.128-.138.8-.41.212-.081.425-.164.638-.244a.454.454,0,0,1,.229-.032.273.273,0,0,1,.021.031,1.768,1.768,0,0,1-.413.426c-.046.035-.048.042-.051.075.043.051.043.051.378.009a.131.131,0,0,0,.008.021,6.828,6.828,0,0,1-.88.451c-.453.214-.611.29-.647.363.063.057.158.022.223.069-.047.122-.3.153-.218.309.028.053.028.053.356-.053a2.016,2.016,0,0,1,.353-.1c.1-.014.193.012.29,0,.242-.019.53-.061.759-.1a.255.255,0,0,1,.117,0c-.067.224-.339.275-.419.492a.185.185,0,0,0,.071,0c-.051.114-.107.2-.563.5" transform="translate(-4616.195 -237.208)" fill="url(#linear-gradient-20)"/>
                    <path id="Path_6956" data-name="Path 6956" d="M4669.653,243.964a1.14,1.14,0,0,1-.4.132c-.021,0-.34-.136-.327-.2a13.273,13.273,0,0,1,1.834-.854.59.59,0,0,1,.334-.032c.193.114-1.42.945-1.439.953" transform="translate(-4615.281 -239.193)" fill="url(#linear-gradient-21)"/>
                    <path id="Path_6957" data-name="Path 6957" d="M4682.615,237.75c-.243.082-.814.2-.778.057a6.1,6.1,0,0,1,1.048-.467,3.645,3.645,0,0,0-.525.141c.09-.1.252-.079.342-.189-.03-.022-.065-.009-.1-.009.169-.124,2.526-.811,2.544-.811-.01.006-.021.013-.031.018-.2.111-.416.186-.614.3-.048.026-.067.083-.117.11a13.305,13.305,0,0,0-1.316.5c-.119.073-.163.1-.159.145.02.1-.222.188-.3.211" transform="translate(-4623.351 -235.112)" fill="url(#linear-gradient-22)"/>
                    <path id="Path_6958" data-name="Path 6958" d="M4682.933,236.707c-.445.145-.494.138-.53.132a.111.111,0,0,0-.008-.024c.125-.217.389-.173.563-.3-.008-.034-.067-.029-.06-.076s.052-.068.086-.089a7.079,7.079,0,0,1,.659-.265c.276-.1.567-.12.844-.2.241-.066.463-.176.7-.237a1.8,1.8,0,0,1,.467-.059v.02c.107.009.207-.032.311-.028-.286.173-.645.145-.929.322.148.043.271-.058.411-.058a.346.346,0,0,1-.059.029l-.044.013c-.442.151-.9.261-1.337.413-.362.126-.71.286-1.073.4" transform="translate(-4623.7 -234.557)" fill="url(#linear-gradient-23)"/>
                    <path id="Path_6959" data-name="Path 6959" d="M4691.129,235.273a2.693,2.693,0,0,1-.546.143,18.229,18.229,0,0,1,2.235-.613,1.335,1.335,0,0,1-.157.051c-.51.142-1.021.279-1.532.419" transform="translate(-4628.819 -234.069)" fill="url(#linear-gradient-24)"/>
                    <path id="Path_6960" data-name="Path 6960" d="M4689.409,232.846a2.35,2.35,0,0,1-.25.162l-.008,0h0a13.869,13.869,0,0,1-3.16,1.529.635.635,0,0,1,.064-.091c-.014-.01-.032-.025-.046-.034a2.4,2.4,0,0,0-.666.321.547.547,0,0,0,.105-.022l.027.044a12.406,12.406,0,0,1-1.813,1.077l-.035-.045c0-.015,0-.036,0-.05a3.113,3.113,0,0,0-1.4.614c.051.37-1.44,1.036-1.455,1.036s-.017-.031-.026-.044a2.05,2.05,0,0,0-.546.117l-.051.008c.036-.084.051-.117.889-.618a2.9,2.9,0,0,0,.3-.195,2.768,2.768,0,0,0-.311.034c-.145-.17-.468-.031-.624.036a1.014,1.014,0,0,1-1.031-.073,5.657,5.657,0,0,1,1.689-.823l2.655-.992a2.289,2.289,0,0,0-.9.214c-.4.142-.6.2-.7.094a5.821,5.821,0,0,1,1.746-.814l0-.019h-.008a23.3,23.3,0,0,1,4.376-1.208c-.479.189-1,.259-1.469.464a26.488,26.488,0,0,0,2.627-.722h0" transform="translate(-4621.818 -232.846)" fill="url(#linear-gradient-25)"/>
                    <path id="Path_6961" data-name="Path 6961" d="M4684.915,252.622h0m0,0h0m0,0h0v0h0a.011.011,0,0,0,0,0m8.217-19.515c-.1-.063-.254-.142-.363-.2-.006,0-.007.006-.014.009.042.034.094.081.132.114-.053-.044-.125-.105-.179-.152l-.041.023-.077.117c.025-.04.059-.094.083-.132l-.039.022c-2.77,2.1-3.8,2.36-4.187,2.459-.027-.031-.066-.069-.1-.1-.214.085-.263.105-.724.663l.122.092.285-.072c-.241.742-1.086.283-1.5.688.021.039.051.092.07.132l.17.038c-.157.4-.595.63-.68,1.079.516-.155.831-.621,1.3-.839a3.485,3.485,0,0,0-.186.668c.37.209,1.34.768.03,2.733a7.736,7.736,0,0,0-1.1,3.233c.418-.239.5-.828,1.02-.961.022.034.055.078.078.11-.08.438.371.749.283,1.188-.066.328-.467.25-.545.136-.148-.217-.038-.466-.09-.7a10.407,10.407,0,0,0-1.752,1.947c.387.244,1.094.534,1.5-.28a1.77,1.77,0,0,0,.7.019c.078.111.159.223,0,.516-.275.514-.9.671-1.2,1.157-.443.721-.5,1.6-.946,2.323a3.111,3.111,0,0,0-.245,3.13c.464-.022.5-.766,1.059-.624-.031.167-.057.313-1.023.957-.077.524.209,3.631.215,3.638.686.87,1.893.422,2.669,1.057a13.039,13.039,0,0,0,1.786,1.61.313.313,0,0,0,.288-.02,2.814,2.814,0,0,0,1.091-2.981c-.152-.285-.553-.43-.47-.844.13-.646.8-.968.959-1.592.18-.679.727-1.19.875-1.886a1.926,1.926,0,0,0-.226-1.146c.03-.031.069-.072.1-.1a3.811,3.811,0,0,0,4.19-1.6c.034-1.28.034-1.28.085-1.318.536-.4.933.6,1.464.152l1.864-2.052c.234-.5-.281-1.336-.285-1.343-.2-.255-.508-.237-.916.056a2.247,2.247,0,0,1-1.875.1c-.3-.326.867-1.128,1.163-1.134.729-.015,1.13.787,1.869.753.243-1.995-3.972-1.709-2.72-3.281.043,0,.1.006.14.007.643.777.643.777,1.012.7a4.253,4.253,0,0,1,.665-1.23,1.742,1.742,0,0,0-.853-1.057,2.379,2.379,0,0,1-.254.114.887.887,0,0,1-.274-.229.374.374,0,0,1,.54-.233c-.386-.69-1.248-.808-1.709-1.411.007-.048.018-.111.029-.161.081-.05.081-.05.535-.05,0-.01-.075-.948-1.444-.98-1.667-2.616-1.667-2.616-2.354-3.039" transform="translate(-4625.101 -232.868)" fill="url(#linear-gradient-26)"/>
                    <path id="Path_6962" data-name="Path 6962" d="M4771.508,240.394a75.574,75.574,0,0,1,13.324,9.735c4.8,4.772,5.2,5.162,8.019,8.722,4.1,5.7,4.345,6.043,6.419,9.809,3.218,6.513,3.344,6.767,4.741,10.746,2.138,7.07,2.222,7.347,2.938,11.518l.246,1.574a31.535,31.535,0,0,0-2.266-8.561c.138,4.223,2.294,7.994,2.7,12.155.111,2.089.309,4.871.319,6.962-.32,7.606-.339,8.059-1.173,12.854-1.651,7.369-1.684,7.506-3.1,11.47-2.735,6.73-2.842,6.992-4.892,10.68-3.738,6.1-3.885,6.342-6.562,9.734a72.054,72.054,0,0,1-8.16,8.631l-2.3,1.979c8.926-8,15.185-20.335,15.246-20.459,2.1-4.18.135-8.871,1.645-13.123-.038,0-4.775.595-4.783.6-2.408,3.243-8.115,3.37-8.91,2.739-.279-4.45-4.648-6.038-6.537-9.362.658-.983,1.731-1.637,2.2-2.771a2.633,2.633,0,0,0-1.219-.839c.036-.779.075-1.664,1.886-3.087-.062-1.188-.062-1.188-2.535-3.378.066-1.4-.134-1.607-.612-2.112.14-1.034,4.541-10.828,4.577-10.861a2.839,2.839,0,0,0,.889-1.292c.352-1.838-.87-3.489-.631-5.315.247-1.889,1.983-3.2,2-5.179.817-.53.817-.53,2.25.856,1.3-1.249,5.113-6.48,5.129-6.513.384-.106.9-.226,1.29-.3l.052-.025.018-.013h0c1,1.292.274,3.2,1.554,4.391l5.867,2.518c-.171-1.32-1.34-2.258-1.385-3.627.264-.272.6-.658.834-.96.485.359.485.359,2.049,2.328.066-.295.066-.295-.22-2.991l.621.354c-.007-2.032-2.757-7.449-3.214-8.215.193.8.51,1.566.738,2.358a3.123,3.123,0,0,1-.837-1.006c-.152.12-.35.28-.5.4-1.39-1.028-1.39-1.028-2.062-2.838-.805-.355-.836-.369-1.65-1.352,0,2.38.363,2.569,2.092,3.48a24.4,24.4,0,0,0,.869,3.133c-1.329-.3-1.329-.3-5.277-6.655-1.021-.221-1.021-.221-2.833-1.829-.212.044-.491.1-.7.144-.341-.283-.8-.661-1.146-.94-.691,3.685,4.522,2.928,5.8,5.441-.086.193-.2.45-.28.642a6.629,6.629,0,0,1,1.407,2.79c-.1.158-.238.369-.341.525-6.884-6.537-6.884-6.537-7.6-6.637a16.879,16.879,0,0,0,.238,2.128,4.187,4.187,0,0,1-1.386-.322c-.079.178-.177.416-.256.595,1.786,2.4,1.576,8.53,1.563,8.577-.56,1.906-1.005,3.411-4.948,2.925-2.071-.257-4.782-10.31-4.765-10.405.164-.094.385-.214.546-.306a13.329,13.329,0,0,0,1.026,1.031,6.038,6.038,0,0,0,2.7-1.916c-1.011-1.626-2.638-4.571-2.645-4.585-2.964-.461-2.964-.461-3.844-1.531,1.088-1.117,1.538-1.11,2.284-1.094a2.753,2.753,0,0,0,.082-1.3c.177-.061.414-.139.593-.2-.521-1.23-.471-2.675-1.406-3.75.39-.858.422-.927-.21-2.007.192.053.448.12.637.174.017-.208.036-.48.05-.687-3.6-3.153-3.6-3.153-3.848-4.524,2.16,1.154,3.828,3.139,6.318,3.73a6.056,6.056,0,0,0-.461-1.475l.706-.085c-.046-.373-.046-.373-4.72-5.173.351.18.815.428,1.158.624-.475-1.241-1.987-1.353-2.625-2.411.133-.132.313-.306.448-.438a4.885,4.885,0,0,0-1.8-1.337,4.112,4.112,0,0,0,.655,1.138c-.063.177-.144.415-.205.59-3.791-.865-5.5-4.864-9.1-6.026,3.221,6.1,11.4,6.9,14.277,13.358-2.674-.905-4.424-3.165-6.733-4.6.667,2.478.667,2.478.658,2.513a2.85,2.85,0,0,1-1.271-.647l-15.284-12.927.611-.141a11.438,11.438,0,0,0-1.3-.646,9.311,9.311,0,0,1,1.417.277,14.97,14.97,0,0,0-1.951-1.006c.028-.049.069-.118.1-.167-.176-.07-.414-.167-.589-.24l.641.132-.519-.346a19.388,19.388,0,0,1,3.638.942c-.8-.34-.8-.34-2.033-.8.762.2.762.2,2.26.639l-.538-.315c4.306-.045,7.172,3.426,11.021,4.5-.346-.514-.346-.514-2.364-1.334l.787.023c-.992-.64-.992-.64-3.237-1.925.217.054.5.123.725.176a46.371,46.371,0,0,0-5.63-2.062c.548.142.548.142,4.9,1.526-2.052-.927-5-2.245-5-2.248.2.037.2.037,2.1.519a15.4,15.4,0,0,0-6.152-1.86c.206.015.477.037.677.051-.168-.082-.4-.189-.567-.271a9.1,9.1,0,0,0,1.491.124,53.639,53.639,0,0,1,15.1,5.775" transform="translate(-4668.593 -233.876)" fill="url(#linear-gradient-27)"/>
                    <path id="Path_6963" data-name="Path 6963" d="M4795.494,288.769c.286.464.222,1.069.6,1.5a4.47,4.47,0,0,0,.979.791c.154.1.567.373.523.757a2.6,2.6,0,0,1-.266.94c-.015.015-.037.031-.053.045a2.815,2.815,0,0,1-1.318.271c-.261.01-.328.091-.358.168-.087.22.016.47-.1.684-.466.826-.575.788-.7.743a.89.89,0,0,1-.295-1.563c.126-.113.2-.18.1-.381s-.3-.493-.577-.347c-.164.087-.34.177-.789-.366.4-.336.555-.462.357-.811-.344-.606-1.13-.79-1.409-1.459.012-.029.029-.068.043-.1.49-.184.42-.347-.157-1.082-.48-.611-1.228-.874-1.78-1.392.019.013.042.029.061.039-.046-.1-.21-.354-.792-.495a2.865,2.865,0,0,1-1.153-.476.863.863,0,0,0-.863-.97,2.892,2.892,0,0,1-2.1-1.438c.011-.015.025-.039.037-.057.465-.015.806.352,1.25.4.006-.118.006-.118-.3-.464-.68-.773-.687-.8-.728-.971.148-.24.389-.072.584-.105.281-.051.193-.357.343-.5a4.926,4.926,0,0,1,.523.078c.248.373.583.87.83,1.242l.5.893c.756-1.5,1.653.931,1.657.96.043.164-.238.155-.18.318a2.663,2.663,0,0,0,.521.645c.232.193.4-.171.616-.18.477-.016.519.48.806.687a6.343,6.343,0,0,0,1.332.653c.585.262.79.918,1.305,1.254.032.022.325.208.433.094.082-.085.073-.21.129-.308l.145-.007a1.765,1.765,0,0,1,.25.307" transform="translate(-4688.11 -263.654)" fill="url(#linear-gradient-28)"/>
                    <path id="Path_6964" data-name="Path 6964" d="M4795.681,298.063c.417.891.446,1.939,1.1,2.739.175.216.442.337.6.571a.416.416,0,0,1,.05.433c0,.008-.267.771-.87.891a5.705,5.705,0,0,1-2.355-.244.221.221,0,0,1-.025-.019c.137-.147.376-.176.46-.387.068-.177-.094-.4.1-.555.075-.061.075-.061.46.117.189.086.3-.054.076-.3a2.506,2.506,0,0,0-.727-.409c-.466-.165-.552-.195-.789-.526-.069-.1-.72-1.459-.762-1.62.312.038.55.409.92.21.163-.088-.086-.491-.167-.621-.3-.488-.3-.5-.276-.589,0-.009.562-.351.565-.354a.7.7,0,0,1,.48.024c.229.092.436.22.67.306.1.037.214,0,.312.048s.134.192.178.283" transform="translate(-4692.833 -273.176)" fill="url(#linear-gradient-29)"/>
                    <path id="Path_6965" data-name="Path 6965" d="M4751.216,264.734a.894.894,0,0,1,.211.378c.007.189-.21.249-.236.418-.033.211.142.4.076.615-.019.069-.121.108-.3.176-.343.128-.49.213-.127.737.193.277.309.445-.415.378a4.029,4.029,0,0,1-1.179-.35c-.172-.085-.175-.088-.239-.072-.133.039-.244.16-.4.136-.019,0-.042-.006-.059-.01a1.317,1.317,0,0,1-.6-.439,4.186,4.186,0,0,1-.7-1.132.2.2,0,0,0-.058-.069c-.272-.189-.408.264-.669.2,0-.013.011-.028.016-.041.571-.241-.07-.687-.136-.713s-.078-.016-.1.006c-.169.167-.926-.2-1.1-.4s-.079-.908.054-.943a3.941,3.941,0,0,1,1.22.694c.512.453.6.47.683.482l.029-.029c-.018-.522-.528-.693-.759-1.065a.32.32,0,0,0,.022-.028,1.511,1.511,0,0,1,.741.385c.179.139.332.264.388.237.037-.018.124-.056.011-.573-.036-.154-.039-.184-.015-.217.092-.115.259-.067.359-.162.155-.147.144-.4.354-.511a.441.441,0,0,1,.3.094c.448.292.827.68,1.282.967.27.169.6.208.858.388a3.262,3.262,0,0,1,.49.467" transform="translate(-4662.891 -251.578)" fill="url(#linear-gradient-30)"/>
                  </g>
                </g>
              </g>
            </g>
          </g>
        </g>
        <g id="Group_1314" data-name="Group 1314" transform="translate(98.637 12.099)">
          <g id="Group_1313" data-name="Group 1313" transform="translate(0 37.801)">
            <g id="Group_1312" data-name="Group 1312">
              <path id="Path_6966" data-name="Path 6966" d="M4571.445,405.334l-6.388.13c-2.032.048-4.5.113-7.348.034s-6.061-.015-9.549-.229-7.279-.268-11.264-.69c-3.989-.34-8.2-.691-12.525-1.309-4.344-.476-8.787-1.3-13.308-2.069-2.264-.379-4.507-.964-6.776-1.44l-3.405-.753-3.369-.936a109.477,109.477,0,0,1-13.222-4.327,55.179,55.179,0,0,1-11.911-6.333,22.763,22.763,0,0,1-4.669-4.49,10.325,10.325,0,0,1-2.222-5.786,9.223,9.223,0,0,1,1.806-5.566,18.318,18.318,0,0,1,3.833-3.9,40.908,40.908,0,0,1,8.241-4.765c2.583-1.176,4.917-1.989,6.837-2.658,1.936-.627,3.46-1.1,4.513-1.388l1.605-.46s-.557.169-1.6.482-2.565.8-4.488,1.451c-1.908.694-4.229,1.539-6.789,2.746a40.73,40.73,0,0,0-8.12,4.845,17.951,17.951,0,0,0-3.7,3.873,8.794,8.794,0,0,0-1.656,5.327,9.812,9.812,0,0,0,2.192,5.463,22.137,22.137,0,0,0,4.606,4.3,54.463,54.463,0,0,0,11.836,6.081,108.7,108.7,0,0,0,13.176,4.11l3.355.882,3.4.7c2.264.441,4.5.99,6.753,1.336,4.507.706,8.932,1.462,13.259,1.873,4.31.555,8.5.848,12.471,1.13,3.967.363,7.739.353,11.208.529s6.652.055,9.468.095,5.283-.057,7.315-.133l6.386-.218Z" transform="translate(-4465.482 -358.396)" fill="#61c5d8"/>
            </g>
          </g>
          <path id="Path_6967" data-name="Path 6967" d="M4750.17,474.019a3.543,3.543,0,1,1-3.542-3.544A3.543,3.543,0,0,1,4750.17,474.019Z" transform="translate(-4638.996 -390.649)" fill="#61c5d8"/>
          <path id="Path_6968" data-name="Path 6968" d="M4549.576,330.263a3.543,3.543,0,1,1-3.543-3.546A3.544,3.544,0,0,1,4549.576,330.263Z" transform="translate(-4513.615 -300.794)" fill="#61c5d8"/>
          <path id="Path_6969" data-name="Path 6969" d="M4787.792,261.123a3.544,3.544,0,1,1-3.544-3.543A3.544,3.544,0,0,1,4787.792,261.123Z" transform="translate(-4662.51 -257.58)" fill="#61c5d8"/>
          <path id="Path_6970" data-name="Path 6970" d="M4903.722,289.175a3.545,3.545,0,1,1-3.546-3.544A3.546,3.546,0,0,1,4903.722,289.175Z" transform="translate(-4734.971 -275.113)" fill="#61c5d8"/>
        </g>
        <g id="Group_1317" data-name="Group 1317" transform="translate(130.004 41.113)">
          <g id="Group_1316" data-name="Group 1316">
            <g id="Group_1315" data-name="Group 1315">
              <path id="Path_6971" data-name="Path 6971" d="M4670.725,410.286s.246.675.706,1.942a45.96,45.96,0,0,1,1.575,5.62,21.083,21.083,0,0,1,.188,9.027,9.107,9.107,0,0,1-2.769,4.814,10.343,10.343,0,0,1-5.7,2.371c-4.356.516-9.053-.561-13.727-2.144a82.775,82.775,0,0,1-14.113-6.572l-7.086-4.138c-2.323-1.526-4.628-3.148-6.977-4.741-1.164-.811-2.366-1.583-3.512-2.437l-3.394-2.628c-2.257-1.772-4.574-3.486-6.794-5.318-4.322-3.785-8.843-7.423-12.889-11.369-4.18-3.8-8.064-7.842-11.858-11.688-3.67-3.962-7.252-7.766-10.422-11.575-3.294-3.7-6.109-7.454-8.824-10.825-2.577-3.473-4.936-6.667-6.923-9.57-1.911-2.957-3.654-5.487-4.955-7.656-2.533-4.387-3.982-6.893-3.982-6.893a1.031,1.031,0,0,1,1.787-1.031s0,0,0,0l.033.063s1.4,2.487,3.851,6.838c1.258,2.158,2.96,4.679,4.815,7.627,1.937,2.9,4.243,6.092,6.76,9.568,2.656,3.375,5.411,7.133,8.645,10.852,3.109,3.823,6.627,7.645,10.236,11.629,3.73,3.865,7.527,7.9,11.673,11.767,4.018,4,8.427,7.63,12.712,11.464,2.188,1.852,4.478,3.583,6.7,5.373l3.351,2.657c1.128.86,2.313,1.638,3.46,2.458,2.313,1.607,4.583,3.244,6.876,4.788q3.566,2.139,7.039,4.218a82.207,82.207,0,0,0,13.944,6.683c4.618,1.623,9.257,2.736,13.524,2.276a10.065,10.065,0,0,0,5.57-2.242,8.888,8.888,0,0,0,2.75-4.671,20.9,20.9,0,0,0-.092-8.963,45.307,45.307,0,0,0-1.508-5.63Z" transform="translate(-4549.137 -334.96)" fill="#61c5d8"/>
            </g>
          </g>
        </g>
        <g id="Group_1320" data-name="Group 1320" transform="translate(121.46 14.734)">
          <g id="Group_1319" data-name="Group 1319">
            <g id="Group_1318" data-name="Group 1318">
              <path id="Path_6972" data-name="Path 6972" d="M4561.678,381.118l-1.984.975c-1.3.617-3.168,1.62-5.627,2.713a80.32,80.32,0,0,1-9.137,3.281,35.1,35.1,0,0,1-5.89,1.062,16.351,16.351,0,0,1-6.6-.675,9.143,9.143,0,0,1-3.083-1.8,8.879,8.879,0,0,1-2.107-3.061,15.783,15.783,0,0,1-.751-7.691c.639-5.312,2.688-10.612,5.17-15.82,1.268-2.588,2.613-5.239,4.165-7.763q1.132-1.916,2.277-3.855c.79-1.276,1.641-2.529,2.466-3.805,3.3-5.109,6.993-10.04,10.771-14.913,1.91-2.417,3.891-4.776,5.833-7.156q3.033-3.462,6.037-6.89c4.083-4.488,8.21-8.807,12.321-12.868s8.217-7.856,12.175-11.382q3.011-2.595,5.852-5.04,2.9-2.359,5.605-4.548c3.669-2.825,7.028-5.425,10.143-7.543,3.049-2.212,5.851-3.937,8.125-5.406s4.168-2.455,5.41-3.208c1.257-.726,1.93-1.113,1.93-1.113l.972,1.818-1.912,1.076c-1.229.731-3.109,1.673-5.367,3.107s-5.046,3.1-8.091,5.264c-3.108,2.067-6.468,4.611-10.137,7.376l-5.62,4.46q-2.84,2.4-5.867,4.95c-3.976,3.464-8.091,7.2-12.233,11.2s-8.291,8.257-12.4,12.684q-3.019,3.377-6.083,6.8c-1.956,2.348-3.958,4.678-5.883,7.066-3.808,4.81-7.549,9.693-10.874,14.726-.832,1.258-1.69,2.492-2.49,3.756l-2.319,3.832c-1.583,2.516-2.918,5.091-4.214,7.666-2.521,5.144-4.6,10.382-5.284,15.591a15.329,15.329,0,0,0,.644,7.483,8.462,8.462,0,0,0,1.982,2.947,8.769,8.769,0,0,0,2.949,1.766,16.083,16.083,0,0,0,6.471.727,34.752,34.752,0,0,0,5.858-.993,80.222,80.222,0,0,0,9.151-3.178c2.466-1.066,4.345-2.051,5.653-2.652Z" transform="translate(-4526.35 -264.607)" fill="#61c5d8"/>
            </g>
          </g>
        </g>
        <g id="Group_1323" data-name="Group 1323" transform="translate(129.265 25.236)">
          <g id="Group_1322" data-name="Group 1322">
            <g id="Group_1321" data-name="Group 1321">
              <path id="Path_6973" data-name="Path 6973" d="M4683.5,293.162l.354.372a7.72,7.72,0,0,1,1.074,1.264,9.738,9.738,0,0,1,.763,1.21c.2.447.417.939.624,1.474.128.552.284,1.148.4,1.783.037.63.121,1.312.1,2.009a22.027,22.027,0,0,1-2.683,9.093,55.97,55.97,0,0,1-6.567,9.752,107.585,107.585,0,0,1-9.375,9.99c-1.68,1.7-3.593,3.335-5.5,5.036-1.88,1.733-3.916,3.334-5.951,5.012-4.089,3.329-8.443,6.6-12.967,9.778-4.513,3.19-9.2,6.287-13.969,9.235-2.359,1.517-4.789,2.919-7.2,4.336-2.394,1.442-4.833,2.777-7.253,4.1-2.4,1.359-4.83,2.622-7.241,3.848q-3.585,1.891-7.164,3.561c-2.364,1.147-4.7,2.255-7.023,3.25-2.314,1.016-4.561,2.049-6.811,2.917-4.442,1.857-8.731,3.388-12.694,4.779l-5.749,1.813c-1.826.573-3.6.977-5.244,1.431l-2.4.633-2.256.45-3.974.793c-2.4.47-4.339.549-5.634.741l-2,.228,1.992-.268c1.293-.217,3.219-.334,5.608-.85l3.96-.871q1.078-.237,2.246-.494l2.372-.676c1.63-.486,3.39-.923,5.2-1.531s3.712-1.251,5.7-1.92c3.923-1.466,8.165-3.076,12.556-5.014,2.223-.908,4.442-1.982,6.728-3.041,2.3-1.037,4.6-2.185,6.931-3.375q3.521-1.733,7.063-3.687c2.375-1.268,4.767-2.572,7.132-3.972,2.38-1.368,4.783-2.743,7.134-4.225,2.367-1.456,4.753-2.9,7.069-4.451,4.688-3.025,9.278-6.193,13.692-9.447,4.426-3.238,8.675-6.566,12.652-9.936,1.975-1.7,3.964-3.326,5.762-5.05,1.83-1.7,3.645-3.307,5.311-5.062a104.593,104.593,0,0,0,8.958-9.928,52.976,52.976,0,0,0,6.024-9.314,18.862,18.862,0,0,0,2.175-7.724,6.639,6.639,0,0,0-1.228-4.23,5.049,5.049,0,0,0-.873-.991c-.24-.24-.362-.365-.362-.365a1.768,1.768,0,1,1,2.5-2.5A.184.184,0,0,0,4683.5,293.162Z" transform="translate(-4547.165 -292.614)" fill="#61c5d8"/>
            </g>
          </g>
        </g>
      </g>
      <g id="Group_1326" data-name="Group 1326" transform="translate(3372.152 214.664)">
        <g id="Group_1325" data-name="Group 1325">
          <path id="Path_6974" data-name="Path 6974" d="M4129.028,695.174c-4.158,33.407-37.169,64.659-94.033,88.655-59.188,24.967-138.531,38.716-223.4,38.716-91,0-177.053-15.468-242.3-43.553-54.585-23.5-87.745-52.822-95.461-83.817h-2.686c7.647,32.056,41.4,62.225,97.113,86.213,65.564,28.222,151.982,43.767,243.333,43.767,85.215,0,164.916-13.824,224.418-38.922,57.948-24.452,91.543-56.558,95.655-91.058Z" transform="translate(-3471.145 -695.174)" fill="#fff"/>
        </g>
      </g>
      <g id="Group_1328" data-name="Group 1328" transform="translate(3403.172 353.384)">
        <g id="Group_1327" data-name="Group 1327">
          <path id="Path_6975" data-name="Path 6975" d="M4149.851,942.459c-3.767,30.265-33.672,58.575-85.187,80.312-53.618,22.616-125.492,35.072-202.383,35.072-82.437,0-160.391-14.011-219.5-39.454-49.448-21.292-79.488-47.849-86.477-75.93h-2.433c6.927,29.04,37.5,56.371,87.975,78.1,59.394,25.567,137.679,39.646,220.431,39.646,77.2,0,149.4-12.521,203.3-35.257,52.495-22.152,82.928-51.236,86.652-82.49Z" transform="translate(-3553.875 -942.459)" fill="#fff"/>
        </g>
      </g>
      <g id="Group_1330" data-name="Group 1330" transform="translate(3422.09 481.965)">
        <g id="Group_1329" data-name="Group 1329">
          <path id="Path_6976" data-name="Path 6976" d="M4162.545,1285.381c-3.527,28.346-31.538,54.864-79.788,75.225-50.223,21.183-117.542,32.849-189.559,32.849-77.216,0-150.228-13.123-205.59-36.956-46.315-19.942-74.45-44.818-81-71.119h-2.282c6.491,27.2,35.131,52.8,82.4,73.153,55.631,23.946,128.956,37.136,206.465,37.136,72.307,0,139.932-11.732,190.42-33.025,49.169-20.75,77.674-47.991,81.163-77.264Z" transform="translate(-3604.329 -1285.381)" fill="#fff"/>
        </g>
      </g>
    </g>
  </g>
</svg>
